<svg width="36" height="38" viewBox="0 0 36 38" fill="none" xmlns="http://www.w3.org/2000/svg">
<g clip-path="url(#clip0_27_104)">
<path d="M29.4212 33.0602C28.7077 32.3218 28.0152 31.6042 27.3017 30.8658C26.4413 31.5626 25.4969 32.0618 24.4267 32.3426C20.2087 33.4553 15.8753 30.5123 15.4031 26.2172C14.9939 22.3902 17.659 18.9168 21.4783 18.3136C25.4969 17.6792 29.3057 20.5391 29.7779 24.5221C29.9773 26.2276 29.61 27.7876 28.7077 29.2331C28.6132 29.3787 28.5293 29.4931 28.6972 29.6699C29.3582 30.3459 30.0087 31.0426 30.6383 31.7082C31.3938 31.2818 31.5092 31.3026 32.0443 31.8226C33.2405 32.9666 34.4261 34.1209 35.6223 35.2649C36.0944 35.7224 36.0944 36.0136 35.6433 36.4816C35.2445 36.8872 34.8458 37.3032 34.4366 37.7088C34.0379 38.1039 33.7231 38.1039 33.3139 37.7088C32.0863 36.5336 30.8691 35.3585 29.652 34.1833C29.1588 33.7049 29.1484 33.5801 29.4212 33.0602ZM22.601 30.5227C25.4969 30.5227 27.8158 28.214 27.7948 25.3541C27.7738 22.5462 25.434 20.2479 22.5905 20.2583C19.726 20.2687 17.4177 22.567 17.4282 25.4165C17.4387 28.2452 19.747 30.5331 22.601 30.5227Z" fill="#1B1B1B"/>
<path d="M26.1265 1.40394C25.6124 1.40394 25.1717 1.40394 24.731 1.40394C24.3218 1.40394 24.0595 1.17515 24.049 0.811167C24.0385 0.457581 24.2903 0.176793 24.6785 0.155994C25.7278 0.0935967 26.7665 0.0311993 27.8158 6.29458e-07C28.3929 -0.0207985 28.6342 0.291188 28.5503 0.863164C28.4034 1.81992 28.267 2.78708 28.1306 3.74384C28.0571 4.23262 27.8158 4.47181 27.4066 4.43021C27.0079 4.39901 26.819 4.10783 26.8715 3.59825C26.9134 3.19267 26.9764 2.77668 27.0498 2.2775C26.6616 2.59989 26.3363 2.87028 26.0216 3.14067C20.1667 8.09086 13.6613 12.0115 6.58933 14.9962C4.77412 15.7657 2.91693 16.4209 1.08073 17.1281C0.53512 17.3361 0.178372 17.2217 0.0314765 16.8265C-0.0944344 16.4521 0.115417 16.1401 0.650538 15.9633C5.23579 14.3722 9.65316 12.4171 13.8817 10.0356C18.1731 7.62288 22.1918 4.815 25.9061 1.60153C25.9691 1.53914 26.0425 1.48714 26.1265 1.40394Z" fill="#0D7C5B"/>
<path d="M12.759 22.3486C12.759 23.971 12.759 25.5933 12.759 27.2052C12.759 28.006 12.5071 28.2452 11.7097 28.2452C10.9857 28.2452 10.2722 28.2452 9.54824 28.2452C8.97115 28.2452 8.65637 27.9332 8.65637 27.3508C8.65637 23.9918 8.65637 20.6327 8.65637 17.2737C8.65637 16.7017 8.93967 16.4001 9.51676 16.3897C10.2932 16.3689 11.0592 16.3793 11.8356 16.3897C12.4862 16.4001 12.759 16.6705 12.759 17.3257C12.759 19 12.759 20.6743 12.759 22.3486Z" fill="#1B7BEB"/>
<path d="M27.9732 18.9169C26.7036 17.9186 25.35 17.3466 23.8181 17.097C23.8181 16.941 23.8181 16.8162 23.8181 16.6914C23.8181 14.2371 23.8181 11.7828 23.8181 9.33891C23.8181 8.55895 24.0909 8.28856 24.8779 8.28856C25.5809 8.28856 26.2944 8.27816 26.9974 8.28856C27.6899 8.29896 27.9627 8.57975 27.9627 9.26612C27.9627 12.3444 27.9627 15.4123 27.9627 18.4905C27.9732 18.5945 27.9732 18.7089 27.9732 18.9169Z" fill="#1B7BEB"/>
<path d="M5.17284 24.4077C5.17284 25.3645 5.17284 26.3212 5.17284 27.2884C5.17284 27.9747 4.87904 28.2555 4.19703 28.2659C3.45205 28.2659 2.70708 28.2659 1.96211 28.2659C1.37453 28.2659 1.05975 27.9643 1.05975 27.382C1.04926 25.3749 1.04926 23.3677 1.05975 21.3606C1.05975 20.7782 1.38502 20.4871 1.9726 20.4871C2.71757 20.4871 3.46255 20.4871 4.20752 20.4871C4.88954 20.4871 5.17284 20.7782 5.17284 21.4646C5.17284 22.4318 5.17284 23.4197 5.17284 24.4077Z" fill="#1B7BEB"/>
<path d="M16.253 19.8735C16.2425 19.6655 16.232 19.5511 16.232 19.4368C16.232 17.3464 16.232 15.2665 16.232 13.1762C16.232 12.3547 16.4838 12.1155 17.3127 12.1155C18.0367 12.1155 18.7502 12.1051 19.4742 12.1155C20.1038 12.1259 20.3766 12.3962 20.3871 13.0202C20.3976 14.3514 20.3976 15.6929 20.3871 17.0241C20.3871 17.1385 20.3031 17.3256 20.2192 17.3464C18.6873 17.8248 17.3862 18.636 16.253 19.8735Z" fill="#1B7BEB"/>
</g>
<defs>
<clipPath id="clip0_27_104">
<rect width="36" height="38" fill="white"/>
</clipPath>
</defs>
</svg>
