<svg width="16" height="22" viewBox="0 0 16 22" fill="none" xmlns="http://www.w3.org/2000/svg">
<path d="M2.66667 0C1.95942 0 1.28115 0.289731 0.781048 0.805456C0.280951 1.32118 0 2.02065 0 2.75V21.0833C0 21.3264 0.0936507 21.5596 0.26035 21.7315C0.427049 21.9034 0.653141 22 0.888889 22H3.55556V17.4167C3.55556 17.1736 3.64921 16.9404 3.81591 16.7685C3.9826 16.5966 4.2087 16.5 4.44444 16.5H11.5556C11.7913 16.5 12.0174 16.5966 12.1841 16.7685C12.3508 16.9404 12.4444 17.1736 12.4444 17.4167V22H15.1111C15.3469 22 15.573 21.9034 15.7397 21.7315C15.9064 21.5596 16 21.3264 16 21.0833V11.9167C16 11.1873 15.719 10.4878 15.219 9.97212C14.7189 9.4564 14.0406 9.16667 13.3333 9.16667H12.4444V2.75C12.4444 2.02065 12.1635 1.32118 11.6634 0.805456C11.1633 0.289731 10.485 0 9.77778 0H2.66667ZM5.33333 4.58333C5.33333 4.82645 5.23968 5.05961 5.07298 5.23151C4.90628 5.40342 4.68019 5.5 4.44444 5.5C4.2087 5.5 3.9826 5.40342 3.81591 5.23151C3.64921 5.05961 3.55556 4.82645 3.55556 4.58333C3.55556 4.34022 3.64921 4.10706 3.81591 3.93515C3.9826 3.76324 4.2087 3.66667 4.44444 3.66667C4.68019 3.66667 4.90628 3.76324 5.07298 3.93515C5.23968 4.10706 5.33333 4.34022 5.33333 4.58333ZM5.33333 9.16667C5.33333 9.40978 5.23968 9.64294 5.07298 9.81485C4.90628 9.98676 4.68019 10.0833 4.44444 10.0833C4.2087 10.0833 3.9826 9.98676 3.81591 9.81485C3.64921 9.64294 3.55556 9.40978 3.55556 9.16667C3.55556 8.92355 3.64921 8.69039 3.81591 8.51849C3.9826 8.34658 4.2087 8.25 4.44444 8.25C4.68019 8.25 4.90628 8.34658 5.07298 8.51849C5.23968 8.69039 5.33333 8.92355 5.33333 9.16667ZM5.33333 13.75C5.33333 13.9931 5.23968 14.2263 5.07298 14.3982C4.90628 14.5701 4.68019 14.6667 4.44444 14.6667C4.2087 14.6667 3.9826 14.5701 3.81591 14.3982C3.64921 14.2263 3.55556 13.9931 3.55556 13.75C3.55556 13.5069 3.64921 13.2737 3.81591 13.1018C3.9826 12.9299 4.2087 12.8333 4.44444 12.8333C4.68019 12.8333 4.90628 12.9299 5.07298 13.1018C5.23968 13.2737 5.33333 13.5069 5.33333 13.75ZM8.88889 4.58333C8.88889 4.82645 8.79524 5.05961 8.62854 5.23151C8.46184 5.40342 8.23575 5.5 8 5.5C7.76425 5.5 7.53816 5.40342 7.37146 5.23151C7.20476 5.05961 7.11111 4.82645 7.11111 4.58333C7.11111 4.34022 7.20476 4.10706 7.37146 3.93515C7.53816 3.76324 7.76425 3.66667 8 3.66667C8.23575 3.66667 8.46184 3.76324 8.62854 3.93515C8.79524 4.10706 8.88889 4.34022 8.88889 4.58333ZM8.88889 9.16667C8.88889 9.40978 8.79524 9.64294 8.62854 9.81485C8.46184 9.98676 8.23575 10.0833 8 10.0833C7.76425 10.0833 7.53816 9.98676 7.37146 9.81485C7.20476 9.64294 7.11111 9.40978 7.11111 9.16667C7.11111 8.92355 7.20476 8.69039 7.37146 8.51849C7.53816 8.34658 7.76425 8.25 8 8.25C8.23575 8.25 8.46184 8.34658 8.62854 8.51849C8.79524 8.69039 8.88889 8.92355 8.88889 9.16667ZM8.88889 13.75C8.88889 13.9931 8.79524 14.2263 8.62854 14.3982C8.46184 14.5701 8.23575 14.6667 8 14.6667C7.76425 14.6667 7.53816 14.5701 7.37146 14.3982C7.20476 14.2263 7.11111 13.9931 7.11111 13.75C7.11111 13.5069 7.20476 13.2737 7.37146 13.1018C7.53816 12.9299 7.76425 12.8333 8 12.8333C8.23575 12.8333 8.46184 12.9299 8.62854 13.1018C8.79524 13.2737 8.88889 13.5069 8.88889 13.75ZM12.4444 13.75C12.4444 13.9931 12.3508 14.2263 12.1841 14.3982C12.0174 14.5701 11.7913 14.6667 11.5556 14.6667C11.3198 14.6667 11.0937 14.5701 10.927 14.3982C10.7603 14.2263 10.6667 13.9931 10.6667 13.75C10.6667 13.5069 10.7603 13.2737 10.927 13.1018C11.0937 12.9299 11.3198 12.8333 11.5556 12.8333C11.7913 12.8333 12.0174 12.9299 12.1841 13.1018C12.3508 13.2737 12.4444 13.5069 12.4444 13.75ZM10.6667 22V18.3333H8.89422V22H10.6667ZM7.11645 22V18.3333H5.33333V22H7.11645Z" fill="#1B1B1B" fill-opacity="0.69"/>
</svg>
