<svg width="33" height="33" viewBox="0 0 33 33" fill="none" xmlns="http://www.w3.org/2000/svg">
<g clip-path="url(#clip0_27_99)">
<path d="M17.2707 0C18.0051 0.145268 18.7476 0.242113 19.4659 0.443874C21.2817 0.944241 22.8393 1.91269 24.1467 3.26046C25.551 4.70506 26.4952 6.41599 26.931 8.39325C27.496 10.9596 27.1651 13.4131 25.9061 15.7131C25.5026 16.4475 24.9376 17.1012 24.4534 17.7872C24.3324 17.9567 24.2274 17.9971 24.0337 17.8841C23.4607 17.5693 22.8232 17.4563 22.1695 17.4563C20.7733 17.4563 19.3771 17.4483 17.9809 17.4644C17.6823 17.4644 17.4563 17.3837 17.2304 17.19C16.1167 16.2458 14.8335 15.6163 13.3969 15.3258C11.46 14.9384 9.60382 15.1886 7.82832 16.0682C7.72341 16.1167 7.61849 16.1731 7.51357 16.2216C7.49743 16.2296 7.47322 16.2296 7.4248 16.2296C6.8518 15.3338 6.42407 14.3734 6.19002 13.3324C5.23771 9.04696 6.416 5.40719 9.70873 2.50183C11.339 1.05723 13.3001 0.274395 15.4791 0.056493C15.5598 0.0484226 15.6486 0.0242113 15.7293 0C16.2377 0 16.7542 0 17.2707 0ZM13.7601 11.8958C13.8892 12.1218 13.9699 12.4043 14.1555 12.5576C14.5106 12.8562 14.9384 13.0741 15.3258 13.3404C15.4226 13.405 15.5194 13.5341 15.5275 13.639C15.5517 13.9457 15.5275 14.2605 15.5437 14.5752C15.5759 15.1321 16.0037 15.5437 16.5202 15.5356C17.0367 15.5275 17.4483 15.1079 17.4725 14.551C17.4806 14.3008 17.4967 14.0587 17.4725 13.8085C17.4402 13.5341 17.5371 13.405 17.7872 13.2839C19.2561 12.5576 19.8291 10.7902 19.0624 9.36977C18.5136 8.3529 17.6339 7.87674 16.504 7.80411C16.0198 7.77183 15.697 7.52164 15.5759 7.09391C15.471 6.73881 15.6082 6.31915 15.9068 6.08511C16.2377 5.81878 16.6897 5.7865 17.077 6.03668C17.3353 6.20616 17.5693 6.41599 17.7953 6.62583C18.215 7.01321 18.7718 7.03742 19.1592 6.68232C19.5627 6.30301 19.5789 5.73808 19.1834 5.30227C18.7638 4.83419 18.2876 4.43874 17.6985 4.2047C17.5371 4.14013 17.4644 4.05943 17.4725 3.88188C17.4886 3.58327 17.4806 3.28467 17.4725 2.97799C17.4563 2.38885 17.0367 1.94497 16.496 1.95304C15.9633 1.96112 15.5598 2.38078 15.5356 2.96185C15.5275 3.22817 15.5114 3.50257 15.5356 3.76889C15.5598 4.03522 15.4549 4.15627 15.2208 4.26926C13.7843 4.93911 13.1871 6.76302 13.9296 8.15114C14.4864 9.19222 15.3822 9.68452 16.5363 9.74908C16.9641 9.77329 17.2627 9.9912 17.4079 10.3947C17.5451 10.774 17.4563 11.1211 17.1739 11.4035C16.8672 11.7102 16.4879 11.7748 16.1086 11.5972C15.8423 11.4762 15.6082 11.2744 15.358 11.1049C15.0433 10.887 14.7043 10.8386 14.3573 11.0161C14.0103 11.1776 13.8327 11.4681 13.7601 11.8958Z" fill="#F29811"/>
<path d="M33 19.7162C32.774 20.1358 32.5884 20.5878 32.3221 20.9752C30.6192 23.4609 28.9164 25.9466 27.1812 28.4161C25.9787 30.1432 24.3162 31.0551 22.1937 31.0471C17.5209 31.0471 12.8481 31.0471 8.17535 31.0471C8.06236 31.0471 7.94131 31.0471 7.79604 31.0471C7.79604 30.8937 7.79604 30.7646 7.79604 30.6355C7.79604 26.6406 7.79604 22.6457 7.78797 18.6509C7.78797 18.3765 7.8606 18.2232 8.09464 18.094C10.6368 16.6413 13.1387 16.714 15.584 18.3119C15.8907 18.5137 16.1651 18.7558 16.4314 19.006C16.73 19.2804 17.0609 19.3853 17.4563 19.3853C19.0866 19.3772 20.7249 19.3772 22.3551 19.3853C23.2993 19.3934 24.066 20.0309 24.2597 20.951C24.4373 21.7822 23.9934 22.6861 23.1864 23.0493C22.9039 23.1784 22.5649 23.2349 22.2583 23.243C20.3859 23.2591 18.5216 23.251 16.6493 23.251C16.1974 23.251 15.8261 23.3882 15.6244 23.824C15.3338 24.4535 15.7616 25.1314 16.4798 25.1799C16.7542 25.196 17.0367 25.1879 17.3191 25.1879C19.1269 25.1879 20.9266 25.1879 22.7344 25.1879C23.5334 25.1879 24.179 24.8974 24.6875 24.2598C26.2773 22.2584 27.8914 20.2811 29.4813 18.2796C29.9817 17.6502 30.6112 17.3435 31.394 17.4807C32.2091 17.6179 32.7256 18.1263 32.9435 18.9333C32.9516 18.9576 32.9839 18.9818 33 18.9979C33 19.2481 33 19.4821 33 19.7162Z" fill="#1B7BEB"/>
<path d="M0 25.2283C0 23.017 0 20.8057 0 18.5944C0 17.8277 0.363169 17.4645 1.11372 17.4645C1.72707 17.4645 2.34043 17.4565 2.95378 17.4645C4.59208 17.4807 5.85106 18.7235 5.85913 20.3618C5.87528 23.6061 5.87528 26.8424 5.85913 30.0867C5.85106 31.725 4.58401 32.9678 2.95378 32.984C2.30814 32.992 1.66251 32.992 1.02495 32.984C0.395451 32.992 0 32.5966 0 31.959C0 29.7154 0 27.4719 0 25.2283Z" fill="#1B7BEB"/>
<path d="M13.7601 11.8958C13.8327 11.4681 14.0103 11.1775 14.3492 11C14.6963 10.8224 15.0352 10.8708 15.35 11.0887C15.6001 11.2582 15.8342 11.4519 16.1005 11.581C16.4798 11.7586 16.8672 11.694 17.1658 11.3874C17.4483 11.1049 17.5371 10.7659 17.3999 10.3785C17.2546 9.97503 16.956 9.75712 16.5282 9.73291C15.3742 9.66835 14.4784 9.17605 13.9215 8.13497C13.179 6.74685 13.7843 4.92294 15.2128 4.25309C15.4468 4.1401 15.5517 4.01905 15.5275 3.75272C15.5033 3.4864 15.5114 3.22007 15.5275 2.94568C15.5517 2.36461 15.9552 1.93688 16.4879 1.93688C17.0286 1.92881 17.4483 2.37268 17.4644 2.96182C17.4725 3.26043 17.4806 3.5671 17.4644 3.86571C17.4563 4.05133 17.5209 4.13203 17.6904 4.18853C18.2795 4.42257 18.7557 4.81802 19.1753 5.28611C19.5627 5.72191 19.5547 6.28684 19.1511 6.66615C18.7638 7.02932 18.2069 6.99704 17.7872 6.60966C17.5613 6.39983 17.3272 6.18999 17.069 6.02051C16.6816 5.77033 16.2296 5.80261 15.8988 6.06894C15.6001 6.30298 15.4629 6.73071 15.5679 7.07774C15.697 7.50547 16.0117 7.75566 16.496 7.78794C17.6258 7.86057 18.5055 8.33673 19.0543 9.3536C19.821 10.7659 19.248 12.5414 17.7792 13.2678C17.529 13.3888 17.4321 13.526 17.4644 13.7923C17.4886 14.0345 17.4806 14.2846 17.4644 14.5348C17.4402 15.0917 17.0286 15.5113 16.5121 15.5194C15.9956 15.5275 15.5679 15.1159 15.5356 14.559C15.5194 14.2524 15.5437 13.9376 15.5194 13.6229C15.5114 13.5179 15.4145 13.3888 15.3177 13.3243C14.9303 13.0579 14.5106 12.84 14.1475 12.5414C13.9699 12.4042 13.8892 12.1218 13.7601 11.8958Z" fill="white"/>
</g>
<defs>
<clipPath id="clip0_27_99">
<rect width="33" height="33" fill="white"/>
</clipPath>
</defs>
</svg>
