<svg width="34" height="37" viewBox="0 0 34 37" fill="none" xmlns="http://www.w3.org/2000/svg">
<g clip-path="url(#clip0_27_81)">
<path d="M27.4432 13.9189C27.4432 15.3943 27.4538 16.8801 27.4432 18.3556C27.4327 19.9961 27.1788 21.6057 26.6184 23.1534C26.5443 23.3598 26.4491 23.4423 26.2165 23.4939C23.0121 24.1336 20.7067 26.4345 20.1145 29.5711C20.0722 29.8188 19.9981 30.087 20.0299 30.3347C20.0827 30.7474 19.8501 30.9125 19.5222 31.0775C18.2638 31.6966 16.963 32.1816 15.5776 32.3879C15.1334 32.4601 14.6364 32.3054 14.1922 32.1712C8.41804 30.4482 4.84355 26.7337 3.58507 20.9557C3.39471 20.0683 3.36299 19.1397 3.35241 18.2318C3.32069 15.1157 3.35241 11.9997 3.33126 8.88374C3.33126 8.55356 3.44759 8.41943 3.7437 8.29562C7.51913 6.74793 11.284 5.15897 15.07 3.60097C15.2603 3.51843 15.5353 3.51843 15.7257 3.60097C19.5222 5.17961 23.3188 6.76857 27.1154 8.3472C27.3904 8.4607 27.4432 8.60515 27.4432 8.8631C27.4432 10.5449 27.4432 12.2371 27.4432 13.9189ZM17.9888 14.2387C18.1792 13.7331 18.4541 13.2688 18.507 12.7839C18.5916 11.9585 18.5599 11.1124 18.507 10.2767C18.4118 8.64642 16.7726 7.23287 15.1017 7.33605C15.1017 8.15116 15.07 8.9766 15.1123 9.79171C15.1757 11.0608 14.6787 12.0823 13.7269 12.8871C13.0289 13.4752 12.2569 13.9808 11.5378 14.5379C11.4215 14.6308 11.3051 14.8268 11.3051 14.9713C11.2946 17.8706 11.2946 20.7596 11.3051 23.659C11.3051 23.8034 11.3792 23.9891 11.4955 24.082C12.0666 24.6082 12.7328 24.99 13.5048 25.186C14.5729 25.4543 15.6516 25.3821 16.7198 25.217C17.9571 25.0313 19.1838 24.8146 20.4529 24.8868C20.9076 24.9178 21.3729 24.8971 21.8383 24.8765C22.5891 24.8455 23.1285 24.2677 23.1179 23.5352C23.1073 22.9058 22.7372 22.5343 22.0709 22.2351C22.9698 22.2764 23.6467 22.07 23.8793 21.2549C24.1014 20.4707 23.7101 19.9239 22.9275 19.5731C24.3552 19.4493 24.884 19.0985 24.9051 18.2627C24.9157 17.8603 24.7888 17.4682 24.4398 17.2516C24.1331 17.0555 23.7524 16.9523 23.4457 16.8182C23.8793 16.6325 24.2389 16.3023 24.3129 15.7555C24.4187 14.8681 23.8159 14.2387 22.8112 14.2387C21.3306 14.2284 19.8607 14.2387 18.3801 14.2387C18.232 14.2387 18.084 14.2387 17.9888 14.2387ZM7.67776 14.703C7.67776 17.8087 7.67776 20.8525 7.67776 23.9272C8.33344 23.9272 8.96796 23.9066 9.60249 23.9376C9.93033 23.9479 10.0255 23.8447 10.0255 23.5248C10.0149 20.9144 10.0149 18.2937 10.0149 15.6832C10.0149 15.4356 10.0361 15.188 10.0044 14.9507C9.99378 14.8578 9.87745 14.7134 9.80342 14.7134C9.10544 14.6927 8.40747 14.703 7.67776 14.703Z" fill="#1B7BEB"/>
<path d="M29.9602 23.6694C29.2516 23.5559 28.596 23.4424 27.9086 23.3289C28.046 22.813 28.247 22.2868 28.321 21.7502C28.4796 20.5843 28.6594 19.4081 28.6806 18.2318C28.7229 14.9507 28.6911 11.6697 28.7017 8.37824C28.7017 7.87266 28.5219 7.59408 28.0355 7.38772C24.0379 5.73686 20.0404 4.06536 16.0641 2.37322C15.5988 2.17718 15.218 2.17718 14.7527 2.37322C10.7446 4.06536 6.74712 5.73686 2.73904 7.39804C2.29487 7.58376 2.09393 7.83139 2.09393 8.32665C2.11509 11.8141 1.99876 15.3119 2.13624 18.789C2.37947 25.1655 5.5944 29.7053 11.4215 32.5015C12.6059 33.069 13.875 33.4611 15.1757 33.6262C15.6728 33.6881 16.2227 33.5539 16.7198 33.3992C17.7456 33.0793 18.7502 32.6872 19.7549 32.3261C19.8712 32.2848 19.9876 32.2229 20.1039 32.1816C20.3154 32.811 20.5163 33.4198 20.749 34.1111C19.8607 34.4413 18.9829 34.8024 18.0734 35.1016C17.312 35.3492 16.5294 35.5866 15.7468 35.6588C15.144 35.7207 14.4989 35.5866 13.8961 35.4318C9.12659 34.2143 5.28771 31.6864 2.63328 27.5799C1.22675 25.4028 0.391291 23.0193 0.137481 20.4605C0.0528771 19.5938 0.0105754 18.7168 0 17.8398C0 14.1459 0.0105754 10.4521 0 6.74801C0 6.43847 0.0951788 6.29402 0.380715 6.18053C5.28771 4.1479 10.1841 2.09464 15.0806 0.0620088C15.2603 -0.0102165 15.5247 -0.0205344 15.6939 0.0620088C20.6115 2.10495 25.5185 4.15822 30.4255 6.20116C30.6899 6.31466 30.7639 6.43847 30.7639 6.71706C30.7533 10.6275 30.7639 14.5483 30.7533 18.4588C30.7533 20.1922 30.5101 21.8947 29.9919 23.5559C29.9919 23.5868 29.9708 23.6384 29.9602 23.6694Z" fill="#1B7BEB"/>
<path d="M21.2778 30.8092C21.2778 27.3733 24.112 24.5875 27.623 24.5772C31.1129 24.5669 33.9894 27.363 34 30.7886C34.0106 34.2038 31.1446 36.9999 27.6442 36.9999C24.112 36.9999 21.2778 34.2554 21.2778 30.8092ZM26.6395 31.4695C26.2376 31.0671 25.8252 30.6544 25.4022 30.252C24.9897 29.8599 24.461 29.8393 24.1014 30.1798C23.7418 30.5306 23.763 31.0465 24.1649 31.4489C24.7677 32.0473 25.3705 32.6355 25.9838 33.2236C26.4386 33.6672 26.9039 33.6776 27.3692 33.2236C28.6171 32.0061 29.8544 30.7782 31.0918 29.5504C31.5042 29.1377 31.5148 28.6321 31.1341 28.2813C30.7745 27.9408 30.2774 27.9615 29.865 28.3432C29.4208 28.7662 28.9978 29.1996 28.5537 29.633C27.9403 30.2417 27.3058 30.8401 26.6395 31.4695Z" fill="#0D7C5B"/>
</g>
<defs>
<clipPath id="clip0_27_81">
<rect width="34" height="37" fill="white"/>
</clipPath>
</defs>
</svg>
