<svg width="51" height="51" viewBox="0 0 51 51" fill="none" xmlns="http://www.w3.org/2000/svg">
<path d="M25.4929 12.0899C32.8654 12.0757 38.9244 18.1489 38.9103 25.5072C38.8961 32.8514 32.8795 38.8822 25.5212 38.8963C18.1628 38.9104 12.0897 32.8373 12.1038 25.479C12.1038 18.1206 18.1346 12.104 25.4929 12.0899ZM25.4647 32.3712C28.247 32.3712 31.0293 32.3854 33.8117 32.3712C35.4641 32.3571 36.3539 30.8883 35.5348 29.4759C32.7524 24.6315 29.956 19.7872 27.1454 14.9428C26.3545 13.5728 24.6455 13.587 23.8264 14.9287C23.4309 15.5784 23.0637 16.2422 22.6965 16.8919C20.3096 21.0301 17.9086 25.1682 15.5359 29.3347C15.2958 29.7443 15.1404 30.3092 15.1828 30.7753C15.2958 31.7922 16.0867 32.3712 17.2024 32.3712C19.9706 32.3712 22.7247 32.3712 25.4647 32.3712Z" fill="#1B1B1B"/>
<path d="M9.60398 8.70018C9.95707 9.02502 10.3243 9.34986 10.6632 9.70295C11.8355 10.8752 13.0078 12.0474 14.18 13.2197C14.2789 13.3186 14.4483 13.4316 14.4483 13.5304C14.4483 13.7988 14.4625 14.1519 14.3071 14.3213C14.18 14.4626 13.7845 14.4484 13.5586 14.3637C13.3467 14.2931 13.1914 14.053 13.0219 13.8694C11.7084 12.5559 10.409 11.2565 9.09554 9.94305C8.96843 9.81594 8.82719 9.68882 8.58709 9.46285C8.58709 10.5221 8.58709 11.4543 8.58709 12.4005C8.58709 12.8242 8.34699 13.0785 7.93741 13.0785C7.55608 13.0785 7.3301 12.8242 7.31598 12.4288C7.31598 12.4005 7.31598 12.3582 7.31598 12.3299C7.31598 10.8893 7.31598 9.4346 7.31598 7.994C7.31598 7.5138 7.5702 7.25958 8.02215 7.24546C9.50512 7.23133 10.9881 7.23133 12.4569 7.24546C12.8524 7.24546 13.1349 7.45731 13.1349 7.89514C13.1349 8.36121 12.8241 8.54482 12.4004 8.54482C11.4965 8.55894 10.6068 8.54482 9.70285 8.54482C9.66048 8.60131 9.63223 8.65781 9.60398 8.70018Z" fill="#F29811"/>
<path d="M8.68596 41.3679C9.98532 40.0544 11.2847 38.755 12.584 37.4415C12.8241 37.2014 13.0501 36.9613 13.2902 36.7354C13.6716 36.3682 14.0388 36.3399 14.3071 36.6506C14.632 37.0178 14.5048 37.3568 14.1941 37.6675C13.036 38.8257 11.8779 39.9838 10.7197 41.1419C10.3384 41.5232 9.92883 41.8905 9.44863 42.3565C9.71697 42.3848 9.82996 42.413 9.95707 42.413C10.7904 42.413 11.6095 42.413 12.4428 42.4271C12.8524 42.4271 13.0784 42.6672 13.0784 43.0486C13.0784 43.4299 12.8383 43.6841 12.4428 43.6841C10.9316 43.6983 9.42038 43.6983 7.89504 43.6841C7.47133 43.6841 7.24536 43.4158 7.23123 43.0062C7.21711 41.5091 7.21711 40.012 7.23123 38.5149C7.23123 38.1195 7.45721 37.8511 7.89504 37.8653C8.33287 37.8794 8.50235 38.176 8.51647 38.5714C8.5306 39.4753 8.51647 40.3934 8.51647 41.2973C8.60122 41.3255 8.64359 41.3538 8.68596 41.3679Z" fill="#F29811"/>
<path d="M2.33038 26.2558C2.96594 26.8914 3.61562 27.5128 4.25118 28.1484C4.56189 28.445 4.64663 28.7981 4.32179 29.1229C4.0252 29.4195 3.67211 29.3913 3.38964 29.0947C2.33038 28.0495 1.28524 27.0044 0.254221 25.9592C-0.0564959 25.6485 -0.0706194 25.2954 0.254221 24.9847C1.29936 23.9396 2.3445 22.8944 3.38964 21.8493C3.68623 21.5527 4.01108 21.4962 4.32179 21.8069C4.64663 22.1318 4.57602 22.4849 4.2653 22.7815C3.62974 23.417 2.98006 24.0384 2.23151 24.787C2.54223 24.8011 2.72584 24.8294 2.89532 24.8294C4.80199 24.8294 6.70867 24.8294 8.60122 24.8294C8.7707 24.8294 8.9543 24.8294 9.12379 24.8576C9.491 24.9 9.77347 25.1401 9.68873 25.479C9.63223 25.7191 9.33564 25.9451 9.10966 26.1146C9.0108 26.1993 8.79895 26.1429 8.64359 26.1429C6.72279 26.1429 4.80199 26.1429 2.88119 26.1429C2.71171 26.1429 2.54223 26.1429 2.37275 26.1429C2.35862 26.157 2.3445 26.1993 2.33038 26.2558Z" fill="#F29811"/>
<path d="M41.5655 8.57312C40.5203 8.57312 39.6306 8.57312 38.7267 8.57312C38.19 8.57312 37.851 8.31889 37.8934 7.92344C37.9499 7.44324 38.2606 7.302 38.7125 7.302C40.1249 7.31613 41.5372 7.302 42.9355 7.302C43.4863 7.302 43.7264 7.51385 43.7264 8.06467C43.7405 9.50527 43.7405 10.96 43.7264 12.4006C43.7264 12.8102 43.5287 13.135 43.0626 13.1209C42.5965 13.1068 42.427 12.7819 42.427 12.3723C42.4129 11.4826 42.427 10.5787 42.427 9.54764C42.2152 9.75949 42.0739 9.87248 41.9468 9.99959C40.5768 11.3696 39.2069 12.7396 37.8369 14.1095C37.7098 14.2366 37.5827 14.4203 37.4414 14.4344C37.1872 14.4626 36.8341 14.4626 36.6929 14.3073C36.5516 14.166 36.5799 13.8129 36.6081 13.5587C36.6364 13.4175 36.82 13.2904 36.9471 13.1633C38.4583 11.6803 39.9554 10.1832 41.5655 8.57312Z" fill="#F29811"/>
<path d="M41.396 42.2858C40.8734 41.7915 40.3509 41.2972 39.8424 40.7887C38.7973 39.7577 37.7663 38.7267 36.7494 37.6816C36.3822 37.3143 36.3539 36.9471 36.6505 36.6647C36.933 36.3963 37.3143 36.4246 37.6674 36.7777C39.108 38.2041 40.5345 39.6447 41.961 41.0712C42.0739 41.1842 42.201 41.2972 42.4129 41.4949C42.4129 40.4498 42.3847 39.5035 42.427 38.5572C42.4412 38.3454 42.6248 38.0629 42.8225 37.964C42.992 37.8793 43.3027 37.9782 43.4722 38.0911C43.5993 38.1759 43.6699 38.4301 43.6699 38.5996C43.684 40.0543 43.6699 41.5232 43.684 42.992C43.684 43.4722 43.4298 43.7123 42.9778 43.7123C41.509 43.7264 40.0543 43.7264 38.5854 43.7123C38.1617 43.7123 37.8651 43.5287 37.8793 43.0485C37.8934 42.5824 38.2182 42.4271 38.6278 42.4129C39.5176 42.3988 40.4215 42.4129 41.3113 42.4129C41.3395 42.3847 41.3678 42.3282 41.396 42.2858Z" fill="#F29811"/>
<path d="M26.1709 2.35875C26.1709 2.75421 26.1709 3.16379 26.1709 3.55925C26.1709 5.25407 26.1709 6.93476 26.1709 8.62959C26.1709 8.78494 26.1709 8.9403 26.1567 9.10979C26.1285 9.477 25.9025 9.70297 25.5494 9.7171C25.1681 9.73122 24.9139 9.477 24.8856 9.09566C24.8574 8.65783 24.8715 8.22 24.8715 7.78217C24.8715 6.14385 24.8715 4.50552 24.8715 2.86719C24.8715 2.69771 24.8715 2.52823 24.8715 2.35875C24.8291 2.3305 24.7868 2.30225 24.7444 2.27401C24.2218 2.8107 23.7134 3.36152 23.1908 3.89821C23.0496 4.03944 22.9225 4.18068 22.7812 4.30779C22.4846 4.56201 22.1598 4.59026 21.8773 4.32192C21.5807 4.02532 21.609 3.68636 21.8914 3.38976C22.6117 2.65534 23.332 1.94916 24.0523 1.21474C24.3772 0.889902 24.702 0.565061 25.0269 0.24022C25.3376 -0.0704972 25.6907 -0.0846207 26.0014 0.226097C27.0606 1.25711 28.1058 2.30225 29.1368 3.36152C29.4334 3.67223 29.504 4.02532 29.1651 4.33604C28.8543 4.61851 28.5154 4.54789 28.2329 4.26542C27.5832 3.61574 26.9477 2.96606 26.298 2.31638C26.2697 2.3305 26.2274 2.34462 26.1709 2.35875Z" fill="#F29811"/>
<path d="M24.7868 48.7687C24.8009 48.4721 24.815 48.3027 24.815 48.1332C24.815 46.2124 24.815 44.2916 24.815 42.3708C24.815 42.2154 24.815 42.0601 24.8291 41.8906C24.8715 41.4951 25.0834 41.255 25.4788 41.2691C25.8743 41.2833 26.0861 41.5375 26.1144 41.9188C26.1426 42.2154 26.1285 42.512 26.1285 42.8227C26.1285 44.7577 26.1285 46.6926 26.1285 48.7264C26.3262 48.5569 26.4533 48.4439 26.5663 48.3309C27.0889 47.8083 27.6115 47.2858 28.134 46.7632C28.5012 46.396 28.8826 46.3677 29.1509 46.6784C29.4334 47.0174 29.3628 47.3705 29.0662 47.6671C28.0493 48.684 27.0324 49.715 26.0014 50.7319C25.6342 51.0991 25.3235 51.085 24.9421 50.7036C23.9111 49.6868 22.8942 48.6557 21.8773 47.6388C21.5666 47.3281 21.4819 46.9892 21.8208 46.6643C22.1598 46.3395 22.4988 46.4383 22.7953 46.7349C23.4309 47.3987 24.0665 48.0343 24.7868 48.7687Z" fill="#F29811"/>
<path d="M48.6979 24.7444C48.0764 24.123 47.4409 23.5157 46.8194 22.8942C46.4381 22.4988 46.3816 22.1033 46.6923 21.835C47.0595 21.5243 47.3985 21.6514 47.7092 21.9621C48.6837 22.9507 49.6724 23.9253 50.661 24.9139C51.0989 25.3659 51.113 25.6483 50.6752 26.0862C49.6865 27.0889 48.6837 28.0776 47.6951 29.0803C47.3844 29.3911 47.0595 29.5323 46.6782 29.1792C46.3816 28.8967 46.4099 28.5295 46.7771 28.1623C47.4126 27.5268 48.0482 26.9053 48.6979 26.2839C48.6837 26.2415 48.6696 26.185 48.6555 26.1427C48.5001 26.1427 48.3307 26.1427 48.1753 26.1427C46.2545 26.1427 44.3337 26.1427 42.4129 26.1427C42.2717 26.1427 42.1304 26.1427 41.9892 26.1427C41.5796 26.1427 41.283 25.9449 41.2689 25.5353C41.2548 25.0975 41.5514 24.8715 41.9892 24.8574C43.0485 24.8433 44.1077 24.8574 45.1529 24.8574C46.311 24.8574 47.4691 24.8574 48.6272 24.8574C48.6555 24.8292 48.6837 24.7868 48.6979 24.7444Z" fill="#F29811"/>
<path d="M25.4647 32.3713C22.7106 32.3713 19.9706 32.3713 17.2166 32.3713C16.1008 32.3713 15.2958 31.7922 15.1969 30.7754C15.1545 30.3093 15.3099 29.7585 15.55 29.3348C17.9227 25.1824 20.3237 21.0443 22.7106 16.8919C23.0919 16.2423 23.4592 15.5785 23.8405 14.9288C24.6596 13.587 26.3686 13.5729 27.1595 14.9429C29.9701 19.7731 32.7665 24.6175 35.5489 29.476C36.3539 30.8883 35.4641 32.3572 33.8258 32.3713C31.0435 32.3854 28.247 32.3713 25.4647 32.3713ZM25.5071 31.1002C28.2611 31.1002 31.0011 31.1002 33.7552 31.1002C34.5602 31.1002 34.8003 30.6765 34.3907 29.9844C31.6508 25.2248 28.9108 20.4793 26.1567 15.7197C25.7472 14.9994 25.2528 15.0135 24.8291 15.7338C22.0892 20.4652 19.3492 25.2107 16.6234 29.9562C16.1855 30.7047 16.4256 31.1143 17.3154 31.1143C20.0413 31.1002 22.7671 31.1002 25.5071 31.1002Z" fill="white"/>
<path d="M25.5071 31.1C22.7812 31.1 20.0413 31.1 17.3154 31.1C16.4398 31.1 16.1997 30.6904 16.6234 29.9419C19.3633 25.1964 22.0892 20.465 24.8291 15.7195C25.2528 14.9992 25.7472 14.9992 26.1567 15.7054C28.9108 20.465 31.6508 25.2105 34.3907 29.9701C34.8003 30.6763 34.5461 31.0859 33.7552 31.0859C31.0011 31.1 28.2611 31.1 25.5071 31.1ZM27.216 20.2814C27.2443 19.6882 26.5522 18.8973 25.4788 18.8973C24.4195 18.9114 23.7416 19.7164 23.8122 20.8887C23.9111 22.3999 23.9817 23.9111 24.0947 25.4223C24.1512 26.2698 24.6879 26.7641 25.4929 26.7641C26.2839 26.7641 26.8347 26.2698 26.9053 25.4365C27.0183 23.9111 27.0889 22.3858 27.216 20.2814ZM27.0889 29.0803C27.0889 28.2329 26.3545 27.4985 25.5071 27.4985C24.6596 27.4985 23.9252 28.2329 23.9111 29.0662C23.9111 29.8995 24.6596 30.648 25.4929 30.648C26.3403 30.6622 27.0889 29.9277 27.0889 29.0803Z" fill="#1B1B1B"/>
<path d="M27.216 20.2816C27.0889 22.386 27.0183 23.9255 26.9053 25.4508C26.8488 26.2982 26.298 26.7784 25.4929 26.7784C24.702 26.7784 24.1653 26.2841 24.0947 25.4367C23.9817 23.9255 23.9111 22.4142 23.8122 20.903C23.7416 19.7308 24.4195 18.9257 25.4788 18.9116C26.5522 18.8834 27.2443 19.6884 27.216 20.2816ZM25.9025 21.1996C25.9166 21.1996 25.9166 21.1996 25.9308 21.1996C25.9308 21.0584 25.9166 20.9172 25.9308 20.7759C25.959 20.4511 25.9025 20.1404 25.5071 20.1404C25.0975 20.1404 25.0834 20.4652 25.0975 20.79C25.1822 22.2448 25.2387 23.6995 25.3376 25.1542C25.3376 25.2672 25.4506 25.3802 25.5071 25.4932C25.5777 25.3802 25.7048 25.2672 25.7048 25.1401C25.7613 23.8266 25.8319 22.5131 25.9025 21.1996Z" fill="white"/>
<path d="M27.0889 29.0804C27.0889 29.9136 26.3403 30.6622 25.4929 30.6622C24.6596 30.6622 23.9111 29.9136 23.9111 29.0804C23.9111 28.2329 24.6597 27.4985 25.5071 27.5127C26.3545 27.5127 27.0889 28.2471 27.0889 29.0804ZM25.5353 28.6567C25.3799 28.8261 25.1963 28.9533 25.2105 29.038C25.2246 29.1651 25.3799 29.2781 25.4788 29.3911C25.5918 29.2781 25.7472 29.1933 25.7895 29.0662C25.8178 28.9815 25.6624 28.8544 25.5353 28.6567Z" fill="white"/>
<path d="M25.9025 21.1994C25.8319 22.5129 25.7754 23.8264 25.6907 25.1399C25.6765 25.267 25.5636 25.38 25.4929 25.4929C25.4364 25.38 25.3235 25.267 25.3235 25.154C25.2387 23.6993 25.1681 22.2445 25.0834 20.7898C25.0692 20.465 25.0975 20.1401 25.4929 20.1401C25.9025 20.1401 25.9449 20.4367 25.9166 20.7757C25.9025 20.9169 25.9166 21.0582 25.9166 21.1994H25.9025Z" fill="black"/>
<path d="M25.5353 28.6567C25.6624 28.8545 25.8178 28.9816 25.7895 29.0663C25.7472 29.1934 25.5918 29.2782 25.4788 29.3912C25.3799 29.2782 25.2246 29.1652 25.2105 29.0381C25.1963 28.9533 25.3799 28.8403 25.5353 28.6567Z" fill="black"/>
</svg>
