<svg width="32" height="34" viewBox="0 0 32 34" fill="none" xmlns="http://www.w3.org/2000/svg">
<path d="M23.3333 3.66659C22.8913 3.66659 22.4674 3.49099 22.1548 3.17843C21.8423 2.86587 21.6667 2.44195 21.6667 1.99992C21.6667 1.55789 21.8423 1.13397 22.1548 0.821407C22.4674 0.508847 22.8913 0.333252 23.3333 0.333252H30C30.442 0.333252 30.866 0.508847 31.1785 0.821407C31.4911 1.13397 31.6667 1.55789 31.6667 1.99992V8.66658C31.6667 9.10861 31.4911 9.53254 31.1785 9.8451C30.866 10.1577 30.442 10.3333 30 10.3333C29.558 10.3333 29.1341 10.1577 28.8215 9.8451C28.5089 9.53254 28.3333 9.10861 28.3333 8.66658V6.02325L18.6783 15.6783C18.3658 15.9907 17.9419 16.1662 17.5 16.1662C17.0581 16.1662 16.6342 15.9907 16.3217 15.6783L11.6667 11.0233L2.845 19.8449C2.53066 20.1485 2.10966 20.3165 1.67266 20.3127C1.23567 20.3089 0.817649 20.1336 0.508636 19.8246C0.199622 19.5156 0.0243407 19.0976 0.0205433 18.6606C0.016746 18.2236 0.184737 17.8026 0.488333 17.4883L10.4883 7.48825C10.8009 7.1758 11.2247 7.00027 11.6667 7.00027C12.1086 7.00027 12.5325 7.1758 12.845 7.48825L17.5 12.1433L25.9767 3.66659H23.3333ZM3.33333 26.9999V31.9999C3.33333 32.4419 3.15774 32.8659 2.84518 33.1784C2.53262 33.491 2.10869 33.6666 1.66667 33.6666C1.22464 33.6666 0.800716 33.491 0.488155 33.1784C0.175595 32.8659 0 32.4419 0 31.9999V26.9999C0 26.5579 0.175595 26.134 0.488155 25.8214C0.800716 25.5088 1.22464 25.3333 1.66667 25.3333C2.10869 25.3333 2.53262 25.5088 2.84518 25.8214C3.15774 26.134 3.33333 26.5579 3.33333 26.9999ZM11.6667 20.3333C11.6667 19.8912 11.4911 19.4673 11.1785 19.1547C10.866 18.8422 10.442 18.6666 10 18.6666C9.55797 18.6666 9.13405 18.8422 8.82149 19.1547C8.50893 19.4673 8.33333 19.8912 8.33333 20.3333V31.9999C8.33333 32.4419 8.50893 32.8659 8.82149 33.1784C9.13405 33.491 9.55797 33.6666 10 33.6666C10.442 33.6666 10.866 33.491 11.1785 33.1784C11.4911 32.8659 11.6667 32.4419 11.6667 31.9999V20.3333ZM18.3333 21.9999C18.7754 21.9999 19.1993 22.1755 19.5118 22.4881C19.8244 22.8006 20 23.2246 20 23.6666V31.9999C20 32.4419 19.8244 32.8659 19.5118 33.1784C19.1993 33.491 18.7754 33.6666 18.3333 33.6666C17.8913 33.6666 17.4674 33.491 17.1548 33.1784C16.8423 32.8659 16.6667 32.4419 16.6667 31.9999V23.6666C16.6667 23.2246 16.8423 22.8006 17.1548 22.4881C17.4674 22.1755 17.8913 21.9999 18.3333 21.9999ZM28.3333 15.3333C28.3333 14.8912 28.1577 14.4673 27.8452 14.1547C27.5326 13.8422 27.1087 13.6666 26.6667 13.6666C26.2246 13.6666 25.8007 13.8422 25.4882 14.1547C25.1756 14.4673 25 14.8912 25 15.3333V31.9999C25 32.4419 25.1756 32.8659 25.4882 33.1784C25.8007 33.491 26.2246 33.6666 26.6667 33.6666C27.1087 33.6666 27.5326 33.491 27.8452 33.1784C28.1577 32.8659 28.3333 32.4419 28.3333 31.9999V15.3333Z" fill="#1B7BEB"/>
</svg>
