<svg width="26" height="26" viewBox="0 0 26 26" fill="none" xmlns="http://www.w3.org/2000/svg">
<g clip-path="url(#clip0_27_85)">
<path d="M0.562857 26C0.128846 25.8101 -0.0203456 25.4709 -1.34949e-06 25.0029C0.0271244 24.2839 -0.0271271 23.5513 0.257693 22.8594C0.556076 22.1268 1.01721 21.5299 1.68179 21.0754C2.54303 21.964 3.58737 22.4388 4.8216 22.4456C6.05582 22.4456 7.10694 21.9776 8.01565 21.0415C8.30047 21.3264 8.60563 21.5909 8.85655 21.8962C9.39228 22.5609 9.65675 23.3342 9.65675 24.1957C9.65675 24.467 9.63641 24.7383 9.66354 25.0097C9.70422 25.4777 9.54147 25.8101 9.10068 26.0068C6.25248 26 3.41106 26 0.562857 26Z" fill="#0D7C5B"/>
<path d="M16.9129 26C16.4789 25.8101 16.3297 25.4709 16.35 25.0029C16.3772 24.2771 16.3229 23.5513 16.6077 22.8526C16.9061 22.12 17.3672 21.5231 18.0183 21.0754C19.8289 22.9272 22.6364 22.839 24.3453 21.0686C25.1455 21.6248 25.6609 22.3778 25.9051 23.3274C25.939 23.4563 25.9729 23.5852 26.0068 23.7073C26.0068 24.2838 26.0068 24.8604 26.0068 25.437C25.8915 25.6947 25.7084 25.8847 25.4507 25.9932C22.5957 26 19.7543 26 16.9129 26Z" fill="#0D7C5B"/>
<path d="M25.4371 26.0001C25.6948 25.8848 25.8779 25.6948 25.9932 25.4438C25.9932 25.627 25.9932 25.8169 25.9932 26.0001C25.8101 26.0001 25.627 26.0001 25.4371 26.0001Z" fill="white"/>
<path d="M18.5743 17.0056C18.7439 16.7614 18.8931 16.5036 19.0829 16.2798C19.8967 15.3437 21.1987 15.0656 22.3109 15.5743C23.4231 16.0763 24.0944 17.2498 23.952 18.4368C23.8028 19.6782 22.8738 20.6549 21.6463 20.872C20.2087 21.1298 18.8388 20.2412 18.4658 18.8031C18.4251 18.6335 18.3573 18.5521 18.1878 18.5047C17.1231 18.1791 16.0584 17.8467 15.0005 17.5143C14.8785 17.4736 14.8106 17.494 14.7225 17.5889C13.7324 18.6539 12.2676 18.6539 11.2843 17.5957C11.1826 17.4872 11.1012 17.4804 10.9791 17.5211C9.90089 17.8603 8.82264 18.1926 7.74439 18.5386C7.66302 18.5657 7.57486 18.6878 7.54773 18.776C7.20866 20.0377 6.12363 20.9127 4.8555 20.9195C3.56025 20.9263 2.45488 20.0851 2.12259 18.8438C1.76317 17.4872 2.46844 16.0695 3.76369 15.5404C5.06573 15.0113 6.55086 15.5268 7.24935 16.7478C7.29682 16.836 7.34429 16.9242 7.40532 17.0327C7.81221 16.9038 8.21231 16.7817 8.6192 16.6596C9.25665 16.4629 9.88732 16.2594 10.5316 16.0695C10.6672 16.0288 10.7079 15.9745 10.7282 15.8321C10.8503 14.991 11.2979 14.3873 12.0642 14.0142C12.1388 13.9735 12.2337 13.865 12.2337 13.7903C12.2473 12.7864 12.2405 11.7757 12.2405 10.7718C12.2405 10.7515 12.2337 10.7243 12.2201 10.6769C12.132 10.6769 12.0438 10.6769 11.9489 10.6769C10.9656 10.6769 9.98905 10.6769 9.00574 10.6769C8.49035 10.6769 8.1784 10.3716 8.18519 9.86287C8.19197 9.17776 8.12415 8.49266 8.33438 7.82113C8.60563 6.95966 9.10068 6.27456 9.83985 5.75903C11.6505 7.61763 14.4648 7.52266 16.1669 5.75903C16.9536 6.30169 17.5164 7.03427 17.6995 7.97036C17.8284 8.64189 17.8148 9.34735 17.8148 10.0392C17.8148 10.4191 17.4554 10.6836 17.035 10.6836C16.0449 10.6836 15.0548 10.6836 14.0647 10.6836C13.9765 10.6836 13.8816 10.6836 13.7663 10.6836C13.7663 11.0431 13.7663 11.3755 13.7663 11.7147C13.7663 12.3998 13.7731 13.0849 13.7663 13.77C13.7663 13.9057 13.807 13.9735 13.9358 14.0345C14.7225 14.394 15.1565 15.0181 15.2921 15.866C15.3057 15.9406 15.3803 16.0491 15.4549 16.0695C16.4721 16.3951 17.4961 16.7139 18.5201 17.0327C18.5336 17.0124 18.5608 17.0056 18.5743 17.0056Z" fill="#0D7C5B"/>
<path d="M13.0136 0C14.5529 0 15.7939 1.24811 15.7939 2.80146C15.7939 4.35481 14.5394 5.59614 12.9797 5.58936C11.4471 5.58257 10.2128 4.32768 10.2128 2.78111C10.2128 1.23454 11.4674 0 13.0136 0Z" fill="#0D7C5B"/>
</g>
<defs>
<clipPath id="clip0_27_85">
<rect width="26" height="26" fill="white"/>
</clipPath>
</defs>
</svg>
