<svg width="30" height="30" viewBox="0 0 30 30" fill="none" xmlns="http://www.w3.org/2000/svg">
<path d="M17.4615 0C18.0642 0.117432 18.6825 0.180063 19.2617 0.367954C22.8463 1.51096 25.0378 3.93006 25.7735 7.62526C25.8909 8.21242 25.8988 8.82307 25.9223 9.42589C25.9457 9.98173 25.9301 10.5376 25.9301 11.1482C26.2353 11.1482 26.5171 11.1482 26.8067 11.1482C27.3624 11.1482 27.9024 11.2265 28.3877 11.5005C29.4052 12.072 29.9765 12.9332 29.9922 14.1075C30.0157 15.5637 30 17.0198 30 18.476C29.9922 20.0809 28.6929 21.404 27.0884 21.4431C26.7206 21.4509 26.3527 21.4431 25.9379 21.4431C25.9379 23.6743 25.9379 25.882 25.9379 28.1289C23.3316 28.1289 20.7566 28.1289 18.1581 28.1289C18.1581 28.763 18.1581 29.3659 18.1581 29.9843C18.0564 29.9922 17.9781 30.0078 17.9076 30.0078C16.7884 30.0078 15.6614 30.0157 14.5421 30.0078C13.1411 30 12.0532 28.9979 11.8732 27.5652C11.701 26.2187 12.5463 24.9582 13.869 24.6138C14.096 24.559 14.3308 24.5198 14.5578 24.5198C15.677 24.512 16.8041 24.512 17.9233 24.512C17.9859 24.512 18.0564 24.5198 18.1503 24.5277C18.1503 25.1461 18.1503 25.7411 18.1503 26.3596C20.1539 26.3596 22.1341 26.3596 24.1299 26.3596C24.1378 26.2891 24.1534 26.2187 24.1534 26.1404C24.1534 20.4254 24.1691 14.7182 24.1456 9.00313C24.1299 5.48017 21.3827 2.37213 17.8998 1.87891C17.2345 1.78497 16.5614 1.77714 15.8883 1.76931C14.8082 1.76148 13.7125 1.71451 12.6402 1.82411C9.67389 2.11378 7.59979 3.6952 6.4023 6.4118C6.00313 7.31211 5.85442 8.27505 5.85442 9.26148C5.86225 13.1994 5.85442 17.1294 5.85442 21.0673C5.85442 21.1848 5.85442 21.3022 5.85442 21.4353C5.73702 21.4431 5.6431 21.4509 5.54918 21.4509C4.71954 21.4509 3.8899 21.4509 3.06027 21.4509C1.56535 21.4431 0.383513 20.4958 0.0626151 19.0397C0.0469616 18.9849 0.0234813 18.9301 0.00782776 18.8753C0.00782776 17.1529 0.00782776 15.4384 0.00782776 13.7161C0.0234813 13.6926 0.0469616 13.6691 0.0547884 13.6456C0.4383 12.0485 1.54187 11.1795 3.17767 11.1717C3.46726 11.1717 3.75685 11.1717 4.08557 11.1717C4.08557 10.9995 4.07775 10.8664 4.08557 10.7333C4.13253 9.6999 4.05427 8.65084 4.24994 7.64875C4.95435 3.93006 7.17715 1.50313 10.7853 0.367954C11.3566 0.187891 11.9593 0.125261 12.5541 0.00782881C14.1743 0 15.8179 0 17.4615 0Z" fill="#0D7C5B"/>
<path d="M22.3298 9.95044C22.3298 13.0428 22.3298 16.1117 22.3298 19.2432C22.2202 19.2432 22.1106 19.2432 21.9932 19.2432C20.5061 19.2432 19.0269 19.2432 17.5398 19.2354C17.3441 19.2354 17.2189 19.298 17.1015 19.4546C16.4597 20.3001 15.8022 21.1378 15.1526 21.9833C15.1057 22.0459 15.0587 22.1008 14.9883 22.179C14.4873 21.5292 13.9943 20.9029 13.509 20.2688C13.2977 20.0026 13.0864 19.7365 12.8829 19.4546C12.7733 19.2902 12.6402 19.2354 12.4446 19.2354C10.9575 19.2432 9.47822 19.2432 7.99113 19.2432C7.88938 19.2432 7.77981 19.2432 7.66241 19.2432C7.66241 16.1274 7.66241 13.0506 7.66241 9.95044C12.562 9.95044 17.438 9.95044 22.3298 9.95044ZM10.9653 13.7161C10.9653 14.2954 10.9653 14.8513 10.9653 15.4149C11.5445 15.4149 12.1158 15.4149 12.6872 15.4149C12.6872 14.8356 12.6872 14.2876 12.6872 13.7161C12.1158 13.7161 11.5523 13.7161 10.9653 13.7161ZM15.8649 13.7239C15.2779 13.7239 14.7143 13.7239 14.143 13.7239C14.143 14.3033 14.143 14.8591 14.143 15.4228C14.73 15.4228 15.2857 15.4228 15.8649 15.4228C15.8649 14.8513 15.8649 14.3033 15.8649 13.7239ZM19.0895 13.7239C18.4947 13.7239 17.9311 13.7239 17.3676 13.7239C17.3676 14.3033 17.3676 14.8591 17.3676 15.4228C17.9546 15.4228 18.5103 15.4228 19.0895 15.4228C19.0895 14.8513 19.0895 14.2954 19.0895 13.7239Z" fill="#1B7BEB"/>
</svg>
