<svg width="19" height="19" viewBox="0 0 19 19" fill="none" xmlns="http://www.w3.org/2000/svg">
<path fill-rule="evenodd" clip-rule="evenodd" d="M13.5239 0.849128C13.7697 -0.277963 15.3746 -0.284869 15.6328 0.83946L15.6439 0.891947L15.6674 0.991396C15.8041 1.57447 16.1092 2.10444 16.5449 2.51533C16.9806 2.92622 17.5274 3.19987 18.1175 3.30221C19.2942 3.50801 19.2942 5.19727 18.1175 5.40169C17.5241 5.50476 16.9744 5.78095 16.5375 6.19553C16.1005 6.61012 15.7959 7.14462 15.6618 7.73185L15.6328 7.86444C15.376 8.99015 13.7697 8.98325 13.5239 7.85478L13.4976 7.74151C13.3686 7.15264 13.0672 6.61551 12.6319 6.19857C12.1965 5.78162 11.6469 5.50373 11.0531 5.40031C9.87912 5.19589 9.87912 3.50801 11.0531 3.30497C11.6452 3.20208 12.1935 2.92571 12.6284 2.51089C13.0634 2.09607 13.3654 1.56147 13.4963 0.974821L13.5142 0.891947L13.5239 0.849128ZM1.35073 0.0756343C1.17342 0.0754528 0.997803 0.110224 0.833933 0.17796C0.670063 0.245696 0.521149 0.345068 0.395704 0.470397C0.270259 0.595725 0.170743 0.74455 0.102846 0.908366C0.0349483 1.07218 6.14722e-07 1.24777 7.07603e-07 1.42511V7.16001C7.07603e-07 7.90588 0.604929 8.50948 1.35073 8.50948H7.0865C7.8323 8.50948 8.43585 7.90588 8.43585 7.16001V1.42511C8.43603 1.24777 8.40127 1.07215 8.33354 0.908261C8.26581 0.744376 8.16644 0.595448 8.04113 0.469992C7.91581 0.344536 7.767 0.245011 7.6032 0.177107C7.43939 0.109204 7.26382 0.074253 7.0865 0.0742531L1.35073 0.0756343ZM7.07603e-07 11.9129C7.07603e-07 11.167 0.604929 10.5634 1.35073 10.5634H7.0865C7.8323 10.5634 8.43585 11.167 8.43585 11.9129V17.6491C8.43585 18.395 7.8323 19 7.0865 19H1.35073C1.1733 19.0002 0.997574 18.9654 0.833614 18.8975C0.669654 18.8297 0.520678 18.7302 0.395215 18.6047C0.269752 18.4793 0.170265 18.3303 0.102449 18.1663C0.0346327 18.0023 -0.000180994 17.8266 7.07603e-07 17.6491V11.9129ZM10.4896 11.9129C10.4896 11.167 11.0931 10.5634 11.8389 10.5634H17.5747C18.3205 10.5634 18.9254 11.167 18.9254 11.9129V17.6491C18.9254 18.395 18.3205 19 17.5747 19H11.8403C11.663 19 11.4874 18.965 11.3236 18.8971C11.1598 18.8292 11.011 18.7297 10.8857 18.6043C10.7604 18.4788 10.661 18.3299 10.5933 18.166C10.5255 18.0021 10.4908 17.8265 10.491 17.6491V11.9142L10.4896 11.9129Z" fill="#FEA05D"/>
</svg>
