<svg width="35" height="35" viewBox="0 0 35 35" fill="none" xmlns="http://www.w3.org/2000/svg">
<path d="M23.5367 15.75C21.3574 15.75 19.5053 14.9847 17.9803 13.454C16.4554 11.9233 15.6923 10.0637 15.6912 7.875C15.6912 5.6875 16.4542 3.82842 17.9803 2.29775C19.5064 0.767083 21.3586 0.00116667 23.5367 0C25.7161 0 27.5688 0.765917 29.0949 2.29775C30.621 3.82958 31.3835 5.68867 31.3823 7.875C31.3823 8.6625 31.2661 9.40625 31.0336 10.1062C30.8012 10.8063 30.5106 11.4625 30.1619 12.075L34.5205 16.45C34.8402 16.7708 35 17.1792 35 17.675C35 18.1708 34.8402 18.5792 34.5205 18.9C34.2009 19.2208 33.7941 19.3813 33.3001 19.3813C32.8061 19.3813 32.3993 19.2208 32.0797 18.9L27.721 14.525C27.1108 14.875 26.457 15.1667 25.7596 15.4C25.0623 15.6333 24.3213 15.75 23.5367 15.75ZM23.5367 12.25C24.7572 12.25 25.7887 11.8271 26.6314 10.9812C27.4741 10.1354 27.8954 9.1 27.8954 7.875C27.8954 6.65 27.4741 5.61458 26.6314 4.76875C25.7887 3.92292 24.7572 3.5 23.5367 3.5C22.3163 3.5 21.2848 3.92292 20.4421 4.76875C19.5994 5.61458 19.1781 6.65 19.1781 7.875C19.1781 9.1 19.5994 10.1354 20.4421 10.9812C21.2848 11.8271 22.3163 12.25 23.5367 12.25ZM3.48692 35C2.52802 35 1.70743 34.6576 1.02516 33.9728C0.342881 33.2879 0.00116231 32.4637 0 31.5V7C0 6.0375 0.341719 5.21383 1.02516 4.529C1.70859 3.84417 2.52918 3.50117 3.48692 3.5H10.9838C11.4778 3.5 11.8846 3.71175 12.2042 4.13525C12.5239 4.55875 12.611 5.01783 12.4658 5.5125C12.3786 5.92083 12.3205 6.34375 12.2914 6.78125C12.2623 7.21875 12.2478 7.64167 12.2478 8.05C12.2478 11.2292 13.3665 13.8833 15.604 16.0125C17.8414 18.1417 20.5002 19.2063 23.5803 19.2063C24.1324 19.2063 24.6845 19.1695 25.2366 19.096C25.7887 19.0225 26.3553 18.8988 26.9365 18.725L30.3798 22.1812C30.6995 22.5021 30.9464 22.8737 31.1208 23.296C31.2951 23.7183 31.3823 24.1634 31.3823 24.6313V31.5C31.3823 32.4625 31.0412 33.2862 30.3589 33.971C29.6766 34.6558 28.8555 34.9988 27.8954 35H3.48692Z" fill="#F29811"/>
</svg>
