<svg width="22" height="22" viewBox="0 0 22 22" fill="none" xmlns="http://www.w3.org/2000/svg">
<g clip-path="url(#clip0_41_4)">
<path d="M10.2328 0C10.7503 0 11.2679 0 11.7763 0C12.1304 0.0453795 12.4845 0.0816832 12.8296 0.145215C14.8634 0.499175 16.6612 1.34323 18.2138 2.70462C20.1478 4.40182 21.3644 6.5165 21.8275 9.05776C21.9001 9.43894 21.9455 9.82921 22 10.2195C22 10.7368 22 11.2541 22 11.7624C21.9546 12.0982 21.9183 12.4431 21.8547 12.7789C21.3644 15.5743 20.0207 17.8886 17.778 19.6312C15.0995 21.7186 12.0487 22.4266 8.72556 21.7368C5.65664 21.0924 3.27777 19.3861 1.62527 16.7178C0.136209 14.3036 -0.317774 11.6716 0.217925 8.88531C0.62651 6.71617 1.62527 4.84654 3.17789 3.28548C4.81223 1.62459 6.77344 0.580858 9.07059 0.172442C9.45193 0.099835 9.84236 0.0544555 10.2328 0ZM3.69543 10.9728C3.67727 15.0116 6.94595 18.2789 10.9955 18.297C15.0359 18.3152 18.3137 15.0479 18.3228 11C18.3318 6.96122 15.0722 3.68482 11.0227 3.67574C6.98227 3.66667 3.70451 6.92492 3.69543 10.9728Z" fill="#88DBFF"/>
<path d="M8.96159 9.45709C10.3326 9.45709 11.6946 9.45709 13.0656 9.45709C13.1745 10.4827 13.1745 11.4992 13.0656 12.5247C11.6946 12.5247 10.3326 12.5247 8.97975 12.5247C8.83447 12.1073 8.82539 10.2104 8.96159 9.45709Z" fill="#88DBFF"/>
<path d="M12.9113 8.31352C11.622 8.31352 10.3781 8.31352 9.07971 8.31352C9.19775 7.85972 9.29762 7.42408 9.42474 6.99751C9.59725 6.42573 9.82424 5.88118 10.1783 5.40015C10.2782 5.26402 10.3963 5.13695 10.5234 5.01897C10.8502 4.73761 11.159 4.74669 11.4858 5.01897C11.5766 5.10065 11.6674 5.18233 11.7401 5.28217C12.421 6.17161 12.6843 7.21534 12.9113 8.31352Z" fill="#88DBFF"/>
<path d="M9.12505 13.6683C10.3871 13.6683 11.631 13.6683 12.9113 13.6683C12.8477 13.9678 12.7932 14.2673 12.7115 14.5487C12.5299 15.2203 12.312 15.8738 11.9216 16.4546C11.7945 16.6452 11.631 16.8268 11.4585 16.981C11.168 17.2352 10.8593 17.2442 10.5687 16.9901C10.369 16.8177 10.1874 16.5999 10.0421 16.373C9.54271 15.5652 9.29756 14.6667 9.11597 13.7409C9.11597 13.7319 9.12505 13.7046 9.12505 13.6683Z" fill="#88DBFF"/>
<path d="M5.01196 9.45709C5.95625 9.45709 6.86421 9.45709 7.77218 9.45709C7.77218 10.4827 7.77218 11.4901 7.77218 12.5157C6.86421 12.5157 5.94717 12.5157 5.01196 12.5157C4.74865 11.4992 4.75773 10.4827 5.01196 9.45709Z" fill="#88DBFF"/>
<path d="M14.246 12.5248C14.246 11.4992 14.246 10.4918 14.246 9.46619C15.1539 9.46619 16.071 9.46619 17.0062 9.46619C17.2604 10.4827 17.2604 11.4992 17.0062 12.5248C16.071 12.5248 15.1539 12.5248 14.246 12.5248Z" fill="#88DBFF"/>
<path d="M13.0203 16.8449C13.5832 15.8193 13.8647 14.7665 14.0553 13.6683C14.8907 13.6683 15.7169 13.6683 16.5795 13.6683C15.8077 15.1931 14.6455 16.2368 13.0203 16.8449Z" fill="#88DBFF"/>
<path d="M5.42053 8.31353C6.20138 6.78878 7.3545 5.75412 8.97976 5.13696C8.4259 6.16254 8.13535 7.21535 7.94468 8.31353C7.10935 8.31353 6.29218 8.31353 5.42053 8.31353Z" fill="#88DBFF"/>
<path d="M14.0644 8.30445C13.8647 7.22442 13.5923 6.16254 13.0203 5.13696C14.6455 5.74505 15.8077 6.7797 16.5886 8.30445C15.726 8.30445 14.8998 8.30445 14.0644 8.30445Z" fill="#88DBFF"/>
<path d="M5.42053 13.6683C6.2831 13.6683 7.10935 13.6683 7.94468 13.6683C8.14443 14.7574 8.41682 15.8102 8.98884 16.8449C7.36358 16.2368 6.20138 15.2022 5.42053 13.6683Z" fill="#88DBFF"/>
</g>
<defs>
<clipPath id="clip0_41_4">
<rect width="22" height="22" fill="white"/>
</clipPath>
</defs>
</svg>
