<svg width="37" height="38" viewBox="0 0 37 38" fill="none" xmlns="http://www.w3.org/2000/svg">
<path d="M18.5205 0C22.1091 0 25.0597 2.93071 25.0697 6.49939C25.0796 10.1777 22.1689 13.1284 18.5404 13.1284C14.8521 13.1284 11.9413 10.2176 11.9313 6.52929C11.9313 2.92074 14.872 0.00996839 18.5205 0ZM22.4978 10.078C24.1725 8.37345 24.5214 4.99416 22.2785 2.76124C20.0755 0.568198 16.447 0.707755 14.4234 3.07026C12.3899 5.45271 13.0279 8.6725 14.4932 10.0481C15.3605 8.08436 16.7461 7.09749 18.5603 7.13737C20.3845 7.18721 21.7801 8.21395 22.4978 10.078Z" fill="#1B7BEB"/>
<path d="M6.55923 11.9412C10.1578 11.9312 13.1184 14.852 13.1284 18.4206C13.1384 22.1089 10.2376 25.0696 6.61904 25.0696C2.93073 25.0696 2.54404e-05 22.1688 2.54404e-05 18.4904C-0.00994295 14.8719 2.9108 11.9512 6.55923 11.9412ZM10.5665 22.0192C12.3608 20.1252 12.5203 16.6463 10.108 14.4831C7.79531 12.4197 4.18675 12.7686 2.28279 15.2507C0.438637 17.663 1.19623 20.7732 2.5619 21.9893C3.2896 20.1352 4.70511 19.1085 6.51935 19.0786C7.9548 19.0586 9.76905 19.8162 10.5665 22.0192Z" fill="#1B7BEB"/>
<path d="M23.8726 18.4904C23.8726 14.8519 26.8133 11.9412 30.4817 11.9412C34.0603 11.9412 37.001 14.8818 37.001 18.4705C37.001 22.1388 34.0902 25.0795 30.4418 25.0795C26.7934 25.0695 23.8726 22.1488 23.8726 18.4904ZM34.4491 22.0192C36.2035 20.205 36.4328 16.7559 34.0902 14.5628C31.8573 12.4795 28.2188 12.7287 26.2949 15.1011C24.3212 17.5334 25.0489 20.7133 26.4544 21.9893C27.212 19.866 29.0063 19.0785 30.4518 19.0785C31.967 19.0785 33.7214 19.9557 34.4491 22.0192Z" fill="#1B7BEB"/>
<path d="M18.5304 23.8826C22.109 23.8826 25.0597 26.8232 25.0597 30.4019C25.0597 34.0802 22.1489 37.0209 18.5104 37.0209C14.8321 37.0209 11.9213 34.1002 11.9213 30.4119C11.9313 26.7933 14.8819 23.8826 18.5304 23.8826ZM22.5078 33.9407C24.0728 32.4155 24.5712 29.1359 22.4679 26.8432C20.3147 24.5006 16.7161 24.4906 14.5629 26.8133C12.4397 29.096 12.9082 32.3956 14.4932 33.9407C15.2209 32.1165 16.5168 31.0299 18.5204 31.0399C20.5041 31.0399 21.79 32.1264 22.5078 33.9407Z" fill="#1B7BEB"/>
<path d="M28.2586 10.8647C28.1389 11.0142 28.0393 11.2435 27.8698 11.3133C27.7003 11.3831 27.3913 11.3731 27.2617 11.2535C26.7334 10.785 26.235 10.2766 25.7565 9.76818C25.5272 9.52894 25.5472 9.23986 25.7665 8.99065C25.9858 8.7514 26.3048 8.69159 26.534 8.90093C27.0723 9.38938 27.5807 9.91771 28.0891 10.446C28.1689 10.5258 28.1888 10.6653 28.2586 10.8647Z" fill="#1B7BEB"/>
<path d="M9.32979 11.4531C9.18027 11.3334 8.95099 11.2338 8.88122 11.0743C8.81144 10.8948 8.80147 10.5858 8.91113 10.4662C9.38961 9.91793 9.91793 9.39957 10.4562 8.91112C10.6955 8.70179 11.0045 8.75163 11.2238 8.99087C11.4431 9.23011 11.473 9.5192 11.2437 9.75844C10.7553 10.2668 10.2569 10.7652 9.74847 11.2537C9.65876 11.3434 9.50922 11.3733 9.32979 11.4531Z" fill="#1B7BEB"/>
<path d="M9.36963 25.5371C9.569 25.6767 9.73846 25.7564 9.86805 25.876C10.2967 26.2847 10.7154 26.7134 11.134 27.1321C11.4331 27.4211 11.463 27.7501 11.2237 28.0192C11.0044 28.2684 10.6256 28.2984 10.3266 28.0192C9.83814 27.5607 9.35966 27.0922 8.92105 26.5838C8.80143 26.4442 8.79146 26.1252 8.86124 25.9458C8.94099 25.7764 9.1902 25.6767 9.36963 25.5371Z" fill="#1B7BEB"/>
<path d="M28.2885 26.1553C28.1689 26.3845 28.119 26.554 28.0094 26.6736C27.5708 27.1322 27.1321 27.5808 26.6736 28.0194C26.3746 28.2985 26.0057 28.2885 25.7764 28.0393C25.5173 27.7602 25.5571 27.4412 25.8761 27.1222C26.3048 26.6936 26.7334 26.2649 27.1621 25.8363C27.3515 25.6469 27.5807 25.5273 27.8299 25.6768C28.0094 25.7864 28.129 25.9858 28.2885 26.1553Z" fill="#1B7BEB"/>
<path d="M20.6035 4.27663C20.6035 5.44293 19.6764 6.38993 18.5101 6.3999C17.3538 6.40986 16.3968 5.47284 16.3869 4.30653C16.3769 3.1203 17.3139 2.16333 18.4902 2.16333C19.6565 2.1733 20.6035 3.11033 20.6035 4.27663Z" fill="#1B7BEB"/>
<path d="M8.66223 16.2375C8.66223 17.4038 7.71524 18.3508 6.55891 18.3508C5.40257 18.3508 4.45557 17.4038 4.45557 16.2475C4.45557 15.0613 5.40257 14.1143 6.57884 14.1143C7.7252 14.1143 8.66223 15.0712 8.66223 16.2375Z" fill="#1B7BEB"/>
<path d="M28.3381 16.1979C28.3581 15.0116 29.315 14.0846 30.5013 14.1145C31.6576 14.1344 32.5747 15.1113 32.5448 16.2776C32.5249 17.4439 31.5579 18.371 30.4016 18.351C29.2453 18.3211 28.3182 17.3642 28.3381 16.1979Z" fill="#1B7BEB"/>
<path d="M16.3968 28.129C16.4167 26.9428 17.3837 26.0157 18.5599 26.0456C19.7163 26.0755 20.6334 27.0425 20.6035 28.2187C20.5736 29.385 19.6166 30.3121 18.4503 30.2822C17.294 30.2623 16.3769 29.2953 16.3968 28.129Z" fill="#1B7BEB"/>
</svg>
