<svg width="44" height="40" viewBox="0 0 44 40" fill="none" xmlns="http://www.w3.org/2000/svg">
<g clip-path="url(#clip0_33_46)">
<path d="M16.5537 29.6195C13.962 25.196 11.4061 20.808 8.80237 16.3609C12.8154 13.6242 16.3507 10.3922 19.3246 6.46411C23.051 12.8457 26.7535 19.1683 30.4918 25.5617C25.583 26.1397 20.9967 27.5316 16.5537 29.6195Z" fill="#F29811"/>
<path d="M6.98697 17.458C9.56677 21.8815 12.1107 26.2224 14.6667 30.6105C14.1292 30.9172 13.6156 31.2121 13.1021 31.507C12.2302 32.0024 11.3583 32.5214 10.4745 32.9932C7.71552 34.4913 4.31161 33.583 2.68729 30.9172C2.00651 29.7966 1.33767 28.6641 0.704664 27.5199C-0.668843 25.031 -0.0119481 21.8225 2.31704 20.2301C3.79804 19.2038 5.39848 18.3899 6.98697 17.458Z" fill="#F29811"/>
<path d="M28.557 9.51942C31.1368 8.32803 33.0956 8.68191 34.2541 10.5339C34.8752 11.5247 34.9827 12.5982 34.6363 13.707C34.278 14.8276 33.4778 15.5589 32.4267 16.0898C32.5223 16.2667 32.5939 16.4082 32.6656 16.538C33.8958 18.6377 35.126 20.7374 36.3442 22.837C36.8936 23.7807 36.7622 24.8069 36.0456 25.5147C35.0304 26.5056 33.4061 26.2932 32.6537 25.0311C31.4235 22.9668 30.2172 20.8907 29.0109 18.8146C26.3355 14.2496 23.6721 9.67277 20.9968 5.10775C20.6385 4.50615 20.4951 3.88097 20.734 3.2086C21.0207 2.40648 21.5939 1.89925 22.4419 1.78129C23.3855 1.65154 24.1499 2.00542 24.6396 2.81934C25.6548 4.52975 26.658 6.25195 27.6613 7.97416C27.9599 8.49318 28.2584 9.0004 28.557 9.51942Z" fill="#F29811"/>
<path d="M12.4929 34.279C14.0814 33.3825 15.6221 32.5096 17.139 31.6367C18.6558 33.123 20.1368 34.5503 21.582 36.013C22.0836 36.5202 22.0478 37.287 21.5461 37.806C20.9489 38.4194 20.3398 39.0328 19.7188 39.6108C19.2171 40.0826 18.4169 40.1298 17.9272 39.658C16.1238 37.9004 14.3442 36.1074 12.4929 34.279Z" fill="#F29811"/>
<path d="M32.0326 4.93071C32.164 4.28193 32.3192 3.55058 32.4745 2.81924C32.6178 2.15866 32.7492 1.49809 32.9164 0.849317C33.0717 0.212337 33.6091 -0.106154 34.2302 0.0353976C34.7915 0.165153 35.126 0.719562 35.0065 1.33295C34.7318 2.6423 34.4571 3.93985 34.1585 5.2374C34.0272 5.8154 33.5136 6.15749 32.9761 6.07491C32.4148 5.99234 32.0326 5.55589 32.0326 4.93071Z" fill="#1B1B1B"/>
<path d="M44 16.4082C44 17.1749 43.2954 17.635 42.4832 17.3755C41.5516 17.0806 40.62 16.7739 39.6884 16.479C39.3659 16.3728 39.0315 16.2902 38.709 16.1723C38.1119 15.96 37.8133 15.4055 37.9924 14.8393C38.1835 14.2495 38.7449 13.9546 39.3659 14.1552C40.6558 14.5562 41.9338 14.9691 43.2118 15.3938C43.7492 15.5589 44 15.9246 44 16.4082Z" fill="#1B1B1B"/>
<path d="M41.7069 5.74474C42.304 5.73294 42.6982 6.01605 42.8534 6.48788C43.0087 6.94792 42.8535 7.41976 42.3877 7.70286C41.6472 8.15111 40.8947 8.56397 40.1542 8.98862C39.7242 9.23633 39.3062 9.48405 38.8763 9.70817C38.291 10.0149 37.67 9.84972 37.3714 9.31891C37.0728 8.78809 37.228 8.21009 37.7894 7.8798C38.936 7.20744 40.0945 6.54686 41.265 5.88629C41.4202 5.80372 41.6233 5.78013 41.7069 5.74474Z" fill="#1B1B1B"/>
</g>
<defs>
<clipPath id="clip0_33_46">
<rect width="44" height="40" fill="white"/>
</clipPath>
</defs>
</svg>
