<svg width="41" height="41" viewBox="0 0 41 41" fill="none" xmlns="http://www.w3.org/2000/svg">
<path d="M12.4357 16.5147C12.13 16.0256 11.8366 15.6098 11.592 15.1696C8.15597 9.09238 11.8977 1.27878 18.782 0.141585C24.5291 -0.79996 29.7993 3.05182 30.643 8.79891C31.4378 14.2036 27.586 19.4371 22.1936 20.2686C21.5699 20.3665 20.9463 20.3665 20.3227 20.4398C20.1393 20.4643 19.9069 20.5377 19.7847 20.6599C18.7698 21.7115 17.7671 22.7876 16.7522 23.8636C16.4098 24.2305 16.4342 24.3894 16.8255 24.7074C17.7793 25.4655 18.9776 25.5022 19.9925 24.7807C21.1297 23.9737 22.2425 23.1422 23.3674 22.3229C24.0889 21.7971 24.6024 21.8338 25.1527 22.5308C26.3266 23.9981 27.8061 24.8174 29.7015 24.8785C30.3373 24.903 30.7531 25.3554 30.7531 25.9424C30.7408 26.5293 30.2762 26.9817 29.6403 27.0062C29.4324 27.0184 29.2246 26.994 28.8944 26.9817C29.8971 28.1801 30.8509 29.305 31.8291 30.4667C32.147 30.0142 32.4038 29.6352 32.3549 29.0605C32.1837 26.7861 32.0737 24.5117 31.9392 22.2373C31.8658 21.0757 31.8047 19.914 31.7313 18.6668C31.3767 18.6668 31.0343 18.6668 30.7041 18.6668C29.9949 18.6546 29.518 18.2266 29.518 17.5907C29.518 16.9671 29.9949 16.5391 30.7164 16.5269C30.7408 16.5269 30.7775 16.5269 30.802 16.5269C31.4134 16.5758 31.9025 16.5269 32.2693 15.8666C32.6239 15.2185 33.3454 14.9984 34.079 14.9251C35.9377 14.7416 37.8085 14.5582 39.6672 14.387C40.5231 14.3014 41 14.7539 41 15.6098C41 20.4031 41 25.1965 41 30.002C41 30.8702 40.572 31.2982 39.6794 31.2493C37.9308 31.1637 36.1822 31.0658 34.4336 30.9558C34.1524 30.9436 33.969 30.9925 33.8712 31.2615C33.8589 31.2982 33.8345 31.3471 33.81 31.3838C33.431 31.8729 33.3454 32.3253 33.6633 32.9489C34.2013 34.0128 33.9323 35.0888 33.2353 36.0303C32.5261 37.0086 31.5601 37.7056 30.5085 38.2558C27.5005 39.8332 24.2845 40.6892 20.8974 40.9582C19.4178 41.0682 18.1584 40.4446 16.9233 39.7354C14.7346 38.4515 12.8392 36.8007 11.0295 35.0399C9.75783 33.7926 8.55949 32.472 7.31225 31.2003C7.17774 31.0658 6.93319 30.9558 6.73755 30.968C4.98896 31.0414 3.24038 31.1637 1.49179 31.2493C0.379058 31.3104 0 30.9436 0 29.8186C0 25.1231 0 20.4398 0 15.7443C0 14.7172 0.476884 14.3014 1.47957 14.4115C3.24038 14.5949 5.00119 14.7661 6.762 14.9251C7.77691 15.0107 8.57172 15.402 9.07306 16.3313C9.12198 16.4169 9.23203 16.5391 9.31762 16.5391C10.357 16.5147 11.3719 16.5147 12.4357 16.5147ZM24.0277 24.4872C23.0862 25.172 22.1813 25.8445 21.2765 26.4926C19.4178 27.8132 17.1924 27.7399 15.4193 26.297C14.1476 25.2698 14.0376 23.668 15.1503 22.4697C15.8228 21.7482 16.5076 21.0268 17.1801 20.3053C17.278 20.2075 17.3635 20.0852 17.4125 20.0241C16.5565 19.5717 15.7373 19.1437 14.918 18.7279C14.7835 18.6546 14.6001 18.6423 14.4411 18.6423C12.9004 18.6423 11.3474 18.6423 9.80674 18.6423C9.64777 18.6423 9.48881 18.6546 9.31762 18.6668C9.25648 19.6206 9.20757 20.5377 9.14643 21.4425C8.98747 24.0348 8.84074 26.6149 8.694 29.2072C8.68178 29.3539 8.76737 29.5251 8.8652 29.6352C11.1763 32.2397 13.6341 34.6975 16.422 36.8007C17.4247 37.5588 18.4641 38.268 19.6869 38.6593C20.2127 38.8305 20.7507 38.855 21.3743 38.7205C20.8852 38.3047 20.4694 37.9379 20.0537 37.5833C19.051 36.7273 18.0483 35.8714 17.0456 35.0032C16.4954 34.5263 16.422 33.9027 16.8378 33.4258C17.2535 32.9489 17.8771 32.9245 18.4396 33.3891C18.4885 33.4258 18.5252 33.4625 18.5741 33.5114C20.3227 35.0154 22.0835 36.5195 23.8321 38.0113C23.9544 38.1091 24.1133 38.268 24.2356 38.2436C24.688 38.158 25.1405 38.0235 25.703 37.8768C25.4829 37.6811 25.3483 37.5833 25.2261 37.461C23.4897 35.7247 21.7534 33.9883 20.017 32.2519C19.9069 32.1419 19.7969 32.0441 19.7113 31.9218C19.3445 31.4694 19.3812 30.8946 19.7724 30.4911C20.1637 30.0998 20.7507 30.0632 21.2031 30.4178C21.3376 30.5156 21.4477 30.6379 21.5577 30.7601C23.5753 32.7777 25.5807 34.7831 27.5983 36.8007C27.7083 36.9108 27.9162 37.0575 28.0262 37.0208C28.4787 36.8618 28.9189 36.6417 29.3958 36.4216C29.2857 36.2871 29.2246 36.2015 29.1512 36.1282C27.1825 34.0127 25.2138 31.8851 23.2452 29.7697C23.0128 29.5129 22.7683 29.2683 22.5604 28.9993C22.218 28.5469 22.2792 27.96 22.7071 27.5809C23.1106 27.2141 23.6731 27.2141 24.1011 27.5687C24.2112 27.6665 24.3212 27.7765 24.419 27.8866C26.5711 30.1977 28.7232 32.521 30.8753 34.8442C30.9732 34.9543 31.0343 35.0888 31.1199 35.2111C31.9147 34.5019 31.9881 33.9149 31.4745 33.3035C29.6159 31.1025 27.7695 28.9015 25.9108 26.7005C25.275 25.9668 24.6514 25.2331 24.0277 24.4872ZM2.18877 29.0116C2.35996 29.0116 2.50671 29.0238 2.65344 29.0116C3.80286 28.9504 4.95227 28.8771 6.10169 28.8404C6.46852 28.8281 6.57858 28.7059 6.5908 28.339C6.65194 26.994 6.73754 25.6489 6.82314 24.3038C6.95764 22.1028 7.07993 19.914 7.21444 17.713C7.23889 17.1872 7.12884 17.0772 6.61527 17.0283C6.11393 16.9793 5.60035 16.9182 5.09901 16.8815C4.13301 16.7959 3.167 16.6981 2.18877 16.6125C2.18877 20.7578 2.18877 24.8663 2.18877 29.0116ZM38.8479 29.0238C38.8479 24.8419 38.8479 20.7333 38.8479 16.6125C37.3072 16.7592 35.8032 16.906 34.2991 17.0405C33.9445 17.0772 33.81 17.2728 33.8345 17.6152C33.8956 18.6057 33.9568 19.5839 34.0179 20.5743C34.1769 23.2033 34.3236 25.8323 34.4703 28.4613C34.4825 28.7425 34.6048 28.8159 34.8616 28.8281C35.3752 28.8404 35.8765 28.8893 36.3901 28.9137C37.1849 28.9504 38.0042 28.9871 38.8479 29.0238ZM19.2833 11.4279C19.051 11.1467 18.941 11.0122 18.8309 10.8654C18.3051 10.1929 17.8038 9.50812 17.2657 8.84782C16.8622 8.3587 16.2141 8.29757 15.7372 8.6644C15.2604 9.03124 15.1381 9.66709 15.5171 10.1807C16.3975 11.3668 17.3024 12.5406 18.2317 13.7023C18.6597 14.2403 19.3445 14.2525 19.858 13.8001C20.0537 13.6289 20.2249 13.4455 20.3961 13.2621C22.0224 11.6113 23.6487 9.96056 25.2872 8.30979C25.6051 7.97964 25.8375 7.62503 25.7274 7.14815C25.6296 6.74463 25.385 6.45116 24.9815 6.32888C24.5291 6.19438 24.1378 6.32888 23.7954 6.67126C22.3892 8.10192 20.9708 9.53258 19.5768 10.9632C19.4545 11.0733 19.3934 11.2445 19.2833 11.4279Z" fill="#1B1B1B"/>
<path d="M4.34092 27.6423C3.76621 27.6423 3.27709 27.1654 3.27709 26.5907C3.26486 26.016 3.74174 25.5269 4.31645 25.5146C4.91562 25.5024 5.41696 25.9915 5.40474 26.5907C5.39251 27.1532 4.91563 27.6423 4.34092 27.6423Z" fill="#1B7BEB"/>
<path d="M37.7718 26.5785C37.7718 27.1532 37.2949 27.6301 36.708 27.6423C36.1088 27.6423 35.6197 27.1409 35.6319 26.554C35.6442 25.9793 36.1333 25.5024 36.7202 25.5146C37.3072 25.5146 37.784 26.0037 37.7718 26.5785Z" fill="#1B7BEB"/>
</svg>
