<svg width="34" height="34" viewBox="0 0 34 34" fill="none" xmlns="http://www.w3.org/2000/svg">
<g clip-path="url(#clip0_27_111)">
<path d="M14.7468 0C22.8894 0 29.4626 6.60722 29.4626 14.7535C29.4626 22.8843 22.8428 29.476 14.7002 29.4604C6.57315 29.4449 -0.0155119 22.8377 2.74306e-05 14.6914C0.0155667 6.57613 6.61977 0 14.7468 0ZM14.7468 3.40466C8.54665 3.37357 3.43421 8.45725 3.40314 14.6914C3.37206 20.8944 8.45341 26.0091 14.6847 26.0558C20.9004 26.1024 26.0439 20.9721 26.0594 14.738C26.075 8.53498 20.9936 3.42021 14.7468 3.40466Z" fill="#1B7BEB"/>
<path d="M24.3345 28.7453C26.0749 27.5172 27.5356 26.0714 28.7322 24.3457C28.8099 24.4079 28.8565 24.4545 28.9031 24.5012C30.2861 25.8693 31.6691 27.2373 33.021 28.6365C34.1398 29.7714 34.3108 31.4038 33.4561 32.6475C32.3994 34.1866 30.255 34.482 28.8409 33.2382C28.1572 32.6319 27.5356 31.9634 26.8985 31.326C26.0594 30.471 25.2047 29.6315 24.3345 28.7453Z" fill="#1B7BEB"/>
<path d="M14.7313 5.67456C19.7349 5.67456 23.7907 9.73217 23.7907 14.7381C23.7907 19.7441 19.7349 23.8017 14.7313 23.8017C9.71208 23.8017 5.65632 19.7441 5.67186 14.707C5.67186 9.71663 9.72762 5.67456 14.7313 5.67456ZM13.8145 15.2822C13.2395 14.7226 12.6956 14.194 12.1517 13.6654C11.67 13.199 10.9863 13.199 10.5357 13.6499C10.085 14.1007 10.085 14.7692 10.5667 15.2667C11.3748 16.0751 12.1984 16.8835 13.022 17.6764C13.5037 18.1272 14.1408 18.1428 14.607 17.6764C16.0521 16.2617 17.4817 14.8469 18.9269 13.4322C19.1911 13.1679 19.3154 12.8415 19.2532 12.4683C19.1755 12.033 18.9424 11.7377 18.5229 11.5822C18.0878 11.4267 17.6837 11.52 17.3419 11.8465C16.6115 12.5616 15.8812 13.2923 15.1508 14.0074C14.7002 14.4116 14.2651 14.8314 13.8145 15.2822Z" fill="#0D7C5B"/>
</g>
<defs>
<clipPath id="clip0_27_111">
<rect width="34" height="34" fill="white"/>
</clipPath>
</defs>
</svg>
