<svg width="25" height="31" viewBox="0 0 25 31" fill="none" xmlns="http://www.w3.org/2000/svg">
<path d="M20.5145 2.81588C19.4662 4.02439 18.5038 5.13727 17.5328 6.26753C16.7594 5.64154 15.9259 5.17204 14.9979 4.85905C10.392 3.30276 5.41667 6.32839 4.6433 11.1537C3.93867 15.5965 6.84309 19.7003 11.2255 20.4393C15.5736 21.1783 19.7412 18.0744 20.3513 13.6403C20.4888 12.6318 20.4544 11.6319 20.2224 10.6408C20.1966 10.5278 20.188 10.3626 20.2568 10.2843C21.0129 9.3801 21.7777 8.49328 22.5683 7.57168C23.1956 8.19767 23.8572 8.75411 24.4072 9.41488C25.086 10.2321 25.1634 11.1885 24.7337 12.1623C24.5533 12.5796 24.3642 12.9969 24.1236 13.3795C23.5135 14.3706 23.4619 15.4314 23.6424 16.5442C23.7283 17.1094 23.7885 17.6919 23.7455 18.257C23.6682 19.1873 23.1354 19.8568 22.3019 20.2654C21.7691 20.5262 21.2278 20.7523 20.6864 20.9783C19.9904 21.2653 19.4318 21.7174 19.0366 22.3694C18.753 22.8302 18.4522 23.2823 18.1601 23.7344C17.4469 24.8299 16.3212 25.2386 15.0838 24.8647C14.5854 24.7169 14.0784 24.5691 13.58 24.4039C12.841 24.1605 12.1106 24.1779 11.3716 24.4126C10.7443 24.6213 10.1084 24.8299 9.45537 24.9516C8.38125 25.1516 7.52195 24.7169 6.89466 23.8301C6.56812 23.3606 6.25879 22.8824 5.95803 22.3868C5.56275 21.7347 5.02139 21.2739 4.31676 20.987C3.80977 20.7784 3.31138 20.5523 2.81299 20.335C1.66153 19.8307 1.06001 18.7613 1.21468 17.5093C1.29202 16.8572 1.35218 16.1965 1.43811 15.5357C1.50685 14.9792 1.39515 14.4576 1.14596 13.962C0.87098 13.423 0.604585 12.8839 0.338202 12.3362C-0.263307 11.119 -0.0570796 9.97131 0.913928 9.02363C1.3178 8.63239 1.72169 8.24984 2.13415 7.86729C2.64114 7.39779 2.95047 6.81527 3.10514 6.14581C3.22544 5.61546 3.34575 5.0938 3.47464 4.56344C3.80977 3.18104 4.71204 2.43333 6.12129 2.36378C6.74858 2.329 7.38446 2.28553 8.01175 2.24205C8.51873 2.20728 8.96557 1.99861 9.36944 1.70301C9.87643 1.33784 10.3662 0.955294 10.8646 0.581438C11.8958 -0.192358 13.073 -0.192357 14.1128 0.572744C14.5252 0.877045 14.9463 1.18135 15.3502 1.50304C16.0118 2.0247 16.7594 2.25075 17.5843 2.28553C18.1687 2.31161 18.7616 2.33769 19.3459 2.42464C19.7154 2.49419 20.0677 2.66808 20.5145 2.81588Z" fill="#0D7C5B"/>
<path d="M12.745 13.2504C14.4109 11.4107 15.9979 9.6634 17.5849 7.9161C19.2596 6.07641 20.9256 4.22831 22.6002 2.38861C22.9773 1.97699 23.4595 1.84258 23.9943 1.96859C24.5204 2.103 24.8536 2.45581 24.9676 2.96824C25.0641 3.38826 24.9413 3.75788 24.6519 4.0771C21.2675 7.7901 17.8743 11.5115 14.4898 15.2245C14.2706 15.4681 14.0339 15.7033 13.7884 15.9301C13.2185 16.4678 12.4206 16.493 11.8507 15.9553C10.5881 14.7625 9.33425 13.5612 8.08919 12.3515C7.54557 11.8223 7.57186 11.0243 8.09794 10.5202C8.63279 10.0162 9.457 10.0078 10.0181 10.5286C10.8599 11.3183 11.6928 12.1247 12.5258 12.9312C12.6047 13.0068 12.6573 13.116 12.745 13.2504Z" fill="#0D7C5B"/>
<path d="M4.36831 22.1155C4.62544 22.3775 4.86485 22.5821 5.04218 22.8196C5.36138 23.2371 5.65397 23.6629 5.95543 24.0968C6.86869 25.4395 8.26963 26.0289 9.97202 25.7588C9.99862 25.7506 10.0341 25.767 10.0962 25.767C10.0518 25.8652 10.0164 25.9553 9.97202 26.0453C9.23609 27.5108 8.49131 28.9845 7.74651 30.45C7.68444 30.5728 7.54258 30.6629 7.43618 30.7693C7.32091 30.6711 7.17904 30.5892 7.09924 30.4664C6.55838 29.6231 6.02638 28.7798 5.50325 27.9284C5.39685 27.7564 5.30817 27.6909 5.06877 27.7319C4.03137 27.9202 2.98513 28.0839 1.93886 28.2395C1.77926 28.264 1.61079 28.2067 1.44232 28.1822C1.46892 28.0348 1.46892 27.8793 1.53099 27.7564C2.41765 25.988 3.30432 24.2278 4.19098 22.4675C4.23531 22.3775 4.27965 22.2874 4.36831 22.1155Z" fill="#0D7C5B"/>
<path d="M14.9039 25.7266C16.2073 25.9487 17.3511 25.7266 18.2998 24.904C18.619 24.6243 18.8673 24.2789 19.1244 23.9498C19.4879 23.481 19.816 22.9956 20.1795 22.535C20.2948 22.3787 20.4721 22.2718 20.6494 22.1155C20.7204 22.2471 20.7736 22.3376 20.8179 22.4281C21.7046 24.1966 22.6001 25.9734 23.4779 27.7502C23.5489 27.8818 23.5311 28.0545 23.5577 28.2026C23.3892 28.219 23.2208 28.2684 23.0612 28.2437C22.0149 28.0874 20.9775 27.9147 19.9313 27.7337C19.7362 27.7008 19.6386 27.7419 19.5411 27.8982C19.0002 28.7784 18.4505 29.6585 17.8919 30.5305C17.821 30.6374 17.6791 30.7608 17.5639 30.769C17.4841 30.7773 17.3511 30.6127 17.2979 30.5058C16.5265 28.9923 15.7639 27.4705 15.0014 25.9487C14.9571 25.8747 14.9393 25.8171 14.9039 25.7266Z" fill="#0D7C5B"/>
</svg>
