<svg width="47" height="35" viewBox="0 0 47 35" fill="none" xmlns="http://www.w3.org/2000/svg">
<g clip-path="url(#clip0_33_2)">
<path d="M0 14.9461C1.5094 14.6178 3.00653 14.3016 4.50366 13.9368C4.73681 13.876 4.99452 13.6206 5.10496 13.4017C5.38721 12.8423 5.58355 12.222 5.85353 11.6505C6.02533 11.2735 5.97624 10.9694 5.76762 10.6289C4.96997 9.40063 4.19687 8.17234 3.42376 6.96838C4.63864 5.76442 5.84125 4.57262 7.06841 3.3565C8.20966 4.07401 9.4 4.77936 10.5535 5.54552C11.0567 5.88603 11.4862 5.94684 12.0384 5.64281C12.5047 5.38742 13.0201 5.21717 13.5232 5.04691C13.8791 4.9253 14.0632 4.69423 14.1491 4.34156C14.4436 2.99166 14.7504 1.65393 15.0695 0.316192C15.094 0.19458 15.2535 0.0121612 15.364 0.0121612C16.9838 0 18.6037 0 20.2603 0C20.5794 1.38638 20.9107 2.7606 21.193 4.12266C21.3034 4.64559 21.5243 4.94962 22.052 5.10771C22.5551 5.26581 23.0582 5.48471 23.5245 5.71578C23.9295 5.91036 24.2608 5.88603 24.6413 5.64281C25.8561 4.86449 27.0956 4.09833 28.2736 3.36866C29.5008 4.57262 30.6911 5.76442 31.9305 6.9927C31.317 7.9656 30.6911 9.04795 29.9671 10.0452C29.4272 10.787 29.2799 11.4316 29.8198 12.222C30.0407 12.5382 30.1266 12.9395 30.2493 13.3165C30.3721 13.6692 30.5807 13.8638 30.9488 13.9368C31.8937 14.1313 32.8264 14.3624 33.8081 14.5813C33.7099 14.7516 33.6363 14.8975 33.5504 15.0313C31.5256 18.5094 29.5131 21.9997 27.4637 25.4534C27.0219 26.1953 26.8256 26.9371 26.8133 27.7641C26.7888 28.5059 26.7397 29.2477 26.7029 29.9896C26.6906 30.1477 26.6661 30.3058 26.6292 30.5368C25.9298 30.099 25.2794 29.7099 24.6413 29.2842C24.2731 29.041 23.9295 29.0167 23.5245 29.2234C23.0337 29.4666 22.5305 29.6855 22.0029 29.8558C21.512 30.0139 21.3034 30.3058 21.193 30.7801C20.8984 32.1543 20.5794 33.5285 20.2603 34.9149C20.1499 34.927 20.0517 34.9514 19.9413 34.9514C18.4564 34.9514 16.9715 34.9514 15.4867 34.9635C15.2044 34.9635 15.094 34.8906 15.0326 34.5987C14.7504 33.2853 14.4313 31.9719 14.1368 30.6584C14.0509 30.2571 13.8546 30.0261 13.4619 29.8923C12.8974 29.6977 12.3574 29.4666 11.8175 29.2113C11.4248 29.0288 11.1057 29.0532 10.7499 29.2842C9.6577 29.9896 8.55326 30.6706 7.4611 31.3516C7.32611 31.4368 7.17885 31.5219 7.06841 31.5827C5.85352 30.3787 4.66319 29.1991 3.43603 27.983C3.68146 27.5817 3.97598 27.1317 4.2705 26.6696C4.77363 25.8912 5.26449 25.1008 5.76762 24.3346C6.00078 23.9819 6.02533 23.6536 5.84125 23.2766C5.58355 22.7293 5.39948 22.1456 5.1295 21.6105C5.00679 21.3794 4.7859 21.0997 4.55274 21.0389C3.04334 20.6619 1.52167 20.3457 0 20.0174C0 18.3391 0 16.6487 0 14.9461ZM7.64517 17.4878C7.60836 22.9239 12.0997 27.3992 17.6219 27.4357C23.1073 27.4722 27.6969 23.0698 27.7337 17.7067C27.7705 12.0761 23.3773 7.60077 17.7815 7.55212C12.1979 7.51564 7.68198 11.9302 7.64517 17.4878Z" fill="#378BED"/>
<path d="M39.2566 7.95337C41.2201 9.0722 43.1467 10.1789 45.1224 11.3099C41.5392 17.4634 37.9559 23.6049 34.348 29.8071C32.3969 28.6883 30.458 27.5816 28.4822 26.4506C32.0778 20.2727 35.6611 14.1313 39.2566 7.95337Z" fill="#0D7C5B"/>
<path d="M39.9316 6.7981C40.2997 6.17787 40.6188 5.56981 40.9992 5.0104C41.4778 4.29288 42.4595 4.0375 43.2326 4.45098C44.2389 4.98607 45.2329 5.55765 46.2023 6.15355C46.9386 6.60352 47.2086 7.53993 46.8405 8.30609C46.5459 8.92631 46.1655 9.52221 45.7974 10.1546C43.8217 9.03576 41.895 7.92909 39.9316 6.7981Z" fill="#0D7C5B"/>
<path d="M28.1755 27.8005C29.918 28.7978 31.587 29.7463 33.3295 30.7436C31.4642 31.9597 29.6603 33.1515 27.7828 34.3798C27.9055 32.1543 28.0405 30.0139 28.1755 27.8005Z" fill="#0D7C5B"/>
<path d="M16.1494 16.9405C17.217 16.9405 18.211 16.9405 19.2909 16.9405C19.2909 16.7702 19.2909 16.6121 19.2909 16.454C19.2909 15.092 19.2909 13.7299 19.2909 12.3557C19.2909 11.626 19.7449 11.3463 20.4076 11.6625C22.5306 12.6962 23.8068 14.3745 24.0522 16.7094C24.3222 19.2876 23.3037 21.3307 21.1193 22.7535C20.7635 22.9846 20.6285 23.2157 20.653 23.617C20.6898 24.1642 20.653 24.7115 20.6653 25.2587C20.6776 25.502 20.6162 25.6357 20.3462 25.7209C18.5791 26.256 16.8366 26.2681 15.0695 25.7209C14.8363 25.6479 14.7627 25.5385 14.7627 25.3074C14.7749 24.6993 14.7504 24.0913 14.7749 23.4832C14.7872 23.1792 14.689 23.0089 14.4191 22.8387C12.2593 21.4888 11.1671 19.5186 11.3266 16.9891C11.4739 14.6055 12.7133 12.83 14.8608 11.7233C15.683 11.2977 16.1371 11.5895 16.1371 12.5259C16.1494 13.9853 16.1494 15.4325 16.1494 16.9405Z" fill="#378BED"/>
</g>
<defs>
<clipPath id="clip0_33_2">
<rect width="47" height="35" fill="white"/>
</clipPath>
</defs>
</svg>
