<svg width="34" height="31" viewBox="0 0 34 31" fill="none" xmlns="http://www.w3.org/2000/svg">
<path d="M7.8857 15.3255C7.90389 11.2233 11.2785 7.8669 15.3807 7.876C19.4829 7.89419 22.8484 11.2688 22.8393 15.3619C22.8302 19.4823 19.4284 22.8569 15.3261 22.8296C11.2057 22.8023 7.8766 19.4278 7.8857 15.3255ZM16.0811 14.3886C16.0447 14.4068 16.0083 14.425 15.981 14.4432C15.981 14.3159 15.981 14.1976 15.981 14.0703C15.981 12.6786 15.981 11.2869 15.981 9.88618C15.981 9.80432 15.981 9.73155 15.981 9.64969C15.9628 9.24038 15.7172 8.9675 15.3716 8.9675C15.0169 8.9675 14.7531 9.24947 14.7531 9.67698C14.7531 11.4143 14.744 13.1425 14.7531 14.8798C14.7531 15.0981 14.6894 15.2164 14.4893 15.3346C13.5433 15.8622 12.6065 16.417 11.6605 16.9628C11.142 17.2629 10.9965 17.5722 11.2057 17.9269C11.4149 18.2817 11.7514 18.2999 12.2699 18.0088C13.0885 17.5358 13.9163 17.0628 14.7258 16.5898C14.844 16.699 14.9259 16.8172 15.035 16.8809C15.4353 17.1356 15.9537 16.8627 15.9446 16.3624C15.9355 15.9804 16.0629 15.7712 16.3903 15.6075C16.6723 15.4711 16.7633 15.1618 16.6268 14.9071C16.5268 14.6888 16.2721 14.5524 16.0811 14.3886Z" fill="#1B7BEB"/>
<path d="M21.6842 21.3287C21.5841 21.8745 21.4841 22.3747 21.4022 22.8659C21.3658 23.1297 21.3385 23.4117 21.3567 23.6754C21.3749 23.9483 21.2658 24.0757 21.0566 24.2121C14.9623 28.1779 6.6214 24.7579 5.0842 17.6449C3.87445 12.0782 7.20353 6.61158 12.6702 5.16534C18.6098 3.59175 24.6312 7.43931 25.7227 13.4972C25.9319 14.6432 25.941 15.7984 25.7682 16.9445C25.75 17.0446 25.6682 17.1901 25.5772 17.2265C24.7859 17.5721 24.0855 18.036 23.3851 18.7C24.2856 16.2805 24.2856 13.952 23.2214 11.6871C22.1481 9.40402 20.3926 7.86681 17.9912 7.08457C14.1983 5.83843 9.97777 7.43931 7.91301 10.8866C5.83005 14.3613 6.4213 18.8364 9.34108 21.6107C11.0784 23.2661 13.1613 24.0757 15.5718 24.0211C17.9731 23.9665 19.9832 23.0205 21.6842 21.3287Z" fill="#1B7BEB"/>
<path d="M28.2878 29.3239C25.1224 29.333 22.5847 26.7952 22.5756 23.6389C22.5665 20.4736 25.1315 17.8904 28.2878 17.9085C31.435 17.9176 34 20.4918 34 23.6298C34 26.7679 31.444 29.3239 28.2878 29.3239ZM27.0871 24.4303C26.6687 23.9027 26.3049 23.4297 25.9229 22.9749C25.5954 22.5838 25.1133 22.5292 24.7495 22.8294C24.4038 23.1114 24.3402 23.6026 24.6403 23.9846C25.2043 24.7123 25.7682 25.4308 26.3504 26.1403C26.6687 26.5314 27.1963 26.586 27.551 26.2313C28.9154 24.8851 30.2707 23.5298 31.6169 22.1654C31.8352 21.9471 31.908 21.6651 31.8079 21.3468C31.5896 20.7283 30.8892 20.5918 30.3798 21.0921C29.5885 21.8743 28.8063 22.6566 28.024 23.4479C27.7057 23.7663 27.4146 24.0937 27.0871 24.4303Z" fill="#1B1B1B"/>
<path d="M22.5483 27.5412C22.7939 27.8414 23.0486 28.1415 23.3487 28.5145C22.6484 28.8601 21.9753 29.2148 21.2749 29.515C18.9827 30.4974 16.5814 30.8612 14.0982 30.652C7.531 30.0972 2.10987 25.4855 0.472614 19.1002C-1.67401 10.732 3.71073 2.09094 12.1881 0.326342C13.8799 -0.0283974 15.5809 -0.0920682 17.2909 0.126233C17.5001 0.15352 17.7639 0.244479 17.873 0.399109C17.9822 0.562835 17.9913 0.853903 17.9276 1.05401C17.8366 1.32689 17.5638 1.38146 17.2818 1.38146C16.163 1.35418 15.0351 1.25412 13.9254 1.33598C11.4786 1.5179 9.25012 2.38201 7.25813 3.80097C4.03819 6.09313 2.08258 9.21302 1.42768 13.1151C0.181546 20.5738 5.16607 27.7231 12.5974 29.1876C15.9993 29.8607 19.2192 29.3422 22.2572 27.6686C22.33 27.6322 22.3937 27.5867 22.4664 27.5503C22.4846 27.5503 22.5119 27.5503 22.5483 27.5412Z" fill="#1B7BEB"/>
<path d="M22.0753 2.9369C22.2391 3.29164 22.3755 3.55542 22.4937 3.83739C22.6575 4.20123 22.5392 4.56507 22.2208 4.7106C21.9025 4.85613 21.5477 4.7197 21.3749 4.36496C20.9929 3.56452 20.62 2.77318 20.247 1.96364C20.056 1.53614 20.2107 1.20869 20.6564 1.05406C21.4841 0.78118 22.3118 0.5174 23.1486 0.253619C23.5397 0.135373 23.8763 0.280907 23.9945 0.608358C24.1128 0.963097 23.94 1.28145 23.5307 1.42699C23.3669 1.48156 23.2123 1.53614 23.0486 1.59071C22.8849 1.64529 22.7302 1.69077 22.5665 1.74534C28.3788 5.21087 31.062 10.3046 30.6618 17.0901C30.1979 16.9718 29.8159 16.8718 29.4157 16.7717C29.7159 13.1607 28.8426 9.87706 26.696 6.94818C25.4863 5.29273 23.9673 3.97383 22.0753 2.9369Z" fill="#1B7BEB"/>
</svg>
