<svg width="28" height="33" viewBox="0 0 28 33" fill="none" xmlns="http://www.w3.org/2000/svg">
<path d="M14.4119 32.9541C14.154 32.9541 13.8961 32.9541 13.6383 32.9541C11.743 32.3288 9.93147 31.51 8.2489 30.427C4.74837 28.1771 2.39535 25.0569 1.15115 21.0858C0.364665 18.5716 0.0810135 15.9736 0.0165472 13.3563C-0.0285793 11.5126 0.0294404 9.66884 0.0616736 7.8251C0.0874601 6.1941 1.42836 4.71138 3.04646 4.51153C3.89742 4.40194 4.74837 4.33103 5.59288 4.1892C7.49464 3.86042 9.25457 3.15774 10.8211 2.01669C11.4271 1.57831 11.9879 1.06903 12.5617 0.59198C13.3546 -0.0784698 14.3087 -0.194509 15.1146 0.321221C15.4369 0.527514 15.7205 0.798272 16.0042 1.05614C17.5578 2.44216 19.3371 3.40271 21.3484 3.94423C22.554 4.27301 23.7917 4.36326 25.023 4.51153C26.5767 4.69848 27.9627 6.18121 27.9756 7.72196C28.0014 9.87513 28.0143 12.0283 27.9756 14.1815C27.9434 16.1219 27.6726 18.043 27.202 19.9319C25.9771 24.8507 23.1728 28.5639 18.744 31.0523C17.3709 31.8324 15.9204 32.4577 14.4119 32.9541ZM22.2252 16.4765C22.2123 11.9445 18.5377 8.27637 14.0186 8.28926C9.4802 8.30215 5.81207 11.9767 5.83141 16.4894C5.8443 21.0278 9.51244 24.6895 14.038 24.6766C18.57 24.6637 22.2381 20.9956 22.2252 16.4765Z" fill="#0D7C5B"/>
<path d="M13.7608 22.7558C10.112 22.5882 7.59141 19.4745 7.74613 16.1996C7.91374 12.6733 11.021 9.8303 14.7472 10.2493C17.9705 10.6103 20.6652 13.5371 20.259 17.2052C19.898 20.493 17.0164 22.8976 13.7608 22.7558ZM12.6004 17.7339C12.5489 17.7145 12.536 17.7081 12.5295 17.7016C12.2072 17.3858 11.8913 17.0634 11.569 16.754C11.1435 16.3478 10.5762 16.3285 10.183 16.7089C9.78971 17.0892 9.79616 17.6887 10.2087 18.1142C10.7503 18.6686 11.2918 19.2102 11.8462 19.7517C12.291 20.19 12.8325 20.2029 13.2709 19.7646C14.7601 18.2883 16.2492 16.7991 17.7255 15.3099C18.1188 14.9102 18.1123 14.3301 17.7449 13.9497C17.3645 13.5565 16.7843 13.55 16.3653 13.9626C15.5466 14.7684 14.7407 15.5807 13.9284 16.393C13.4965 16.8378 13.0453 17.2826 12.6004 17.7339Z" fill="#F29811"/>
</svg>
